<svg width="464.000000" height="464.000000" viewBox="0 0 464 464" fill="none" xmlns="http://www.w3.org/2000/svg" xmlns:xlink="http://www.w3.org/1999/xlink">
  <desc>
    Created with Pixso.
  </desc>
  <g filter="url(#filter_1_22_dd)">
    <rect x="4.000000" width="456.000000" height="456.000000" fill="url(#paint_radial_1_22_0)" fill-opacity="0.3"/>
  </g>
  <path d="M356.448 264.097Q356.038 262.114 354.363 260.439Q353.646 259.756 352.449 259.619Q351.287 259.448 350.569 260.303Q349.305 261.841 348.108 263.447Q346.946 265.054 345.613 266.113Q344.28 267.173 342.537 267.446Q340.794 267.72 338.538 266.729Q335.325 265.327 332.796 262.695Q339.256 255.107 341.614 245.605Q342.332 242.529 342.674 238.394Q343.016 234.258 342.605 230.19Q342.195 226.123 340.726 222.5Q339.256 218.877 336.316 216.895Q333.787 215.22 330.916 215.083Q328.045 214.946 325.037 215.938Q322.029 216.895 319.09 218.74Q316.15 220.552 313.621 222.637Q313.484 215.356 312.493 207.256Q311.536 199.121 308.733 191.841Q310.271 192.969 311.81 193.823Q313.348 194.644 314.749 195.327Q320.491 198.403 327.464 200.181Q334.471 201.924 340.794 199.976Q342.879 199.258 343.904 197.651Q344.964 196.045 344.827 194.233Q344.69 192.388 343.631 190.781Q342.605 189.175 340.486 188.491Q337.684 187.637 334.812 187.158Q331.976 186.646 329.104 186.372Q326.233 186.099 323.362 185.688Q320.491 185.244 317.688 184.424Q315.296 183.706 312.972 182.544Q310.682 181.348 308.357 180.151Q306.067 178.955 303.743 177.998Q301.453 177.007 298.924 176.87Q298.206 176.733 297.864 177.212Q297.522 177.69 297.659 178.271L298.069 180.083Q298.514 184.561 299.607 188.765Q300.735 192.969 301.932 197.173Q303.128 201.377 304.153 205.649Q305.213 209.888 305.486 214.365Q305.794 219.287 305.691 224.038Q305.623 228.789 304.939 233.267Q304.803 233.984 304.153 236.104Q303.538 238.188 302.684 240.923Q301.863 243.623 300.804 246.665Q299.744 249.673 298.821 252.134Q297.933 254.561 297.215 256.03Q296.609 257.333 296.325 257.266Q296.289 257.258 296.258 257.227Q295.574 256.372 294.378 256.509Q293.182 256.646 292.464 257.637Q291.78 259.038 291.644 260.029Q291.507 260.986 291.78 262.524Q292.464 264.917 294.412 265.498Q296.395 266.045 298.377 265.19Q301.863 263.652 304.29 261.021Q304.79 260.479 305.258 259.906Q302.872 263.841 303.812 266.592Q304.803 269.395 307.537 270.933Q310.271 272.471 313.963 272.71Q317.688 272.915 320.628 271.65Q323.123 270.659 326.233 268.711Q329.446 272.334 333.514 274.727Q337.547 276.812 342.571 277.153Q347.63 277.529 351.697 274.727Q353.509 273.462 354.773 271.719Q356.038 269.976 356.448 268.027Q356.893 266.045 356.448 264.097ZM305.839 259.165Q306.47 258.587 307.4 258.491Q308.733 258.354 309.827 259.312Q312.22 261.704 314.715 261.567Q317.244 261.431 319.91 259.893Q317.107 255.107 315.364 249.946Q313.621 244.751 312.63 239.863Q312.083 243.794 311.092 247.656Q310.135 251.484 308.426 254.937Q307.308 257.218 305.839 259.165ZM301.146 235.317Q303.812 233.848 304.529 230.635Q304.803 229.507 303.948 228.447Q303.128 227.388 301.727 227.832Q300.052 228.242 298.719 228.516Q297.386 228.789 295.711 227.832Q293.729 226.704 292.19 224.893Q290.652 223.047 289.388 221.235Q287.85 219.287 286.585 217.134Q285.354 214.946 284.09 212.69Q287.576 212.417 290.584 211.46Q293.592 210.469 295.848 208.931Q297.522 207.803 298.069 205.923Q298.65 204.009 298.138 202.334Q297.659 200.659 296.258 199.463Q294.856 198.267 292.635 198.403Q290.379 198.574 288.191 198.984Q286.038 199.395 283.953 199.805Q284.227 195.908 284.158 192.046Q284.09 188.184 283.372 184.424Q283.099 183.569 282.312 183.433Q281.561 183.296 281.15 184.014Q278.484 187.637 277.015 191.978Q275.545 196.318 274.69 200.796L274.417 200.796Q269.939 200.796 265.667 199.395Q261.395 197.993 257.054 197.993Q255.789 197.993 255.003 199.121Q254.251 200.249 254.969 201.377Q257.054 205.41 261.531 208.076Q266.009 210.742 271.341 212.007Q270.623 214.365 269.939 216.689Q269.256 219.014 268.265 221.235Q267.41 223.354 266.214 226.226Q265.052 229.097 263.411 231.763Q261.805 234.395 259.856 236.514Q257.908 238.599 255.516 239.316Q254.388 239.59 253.978 240.513Q253.567 241.401 254.114 242.393L254.695 243.623Q254.969 244.478 255.789 244.922Q256.644 245.332 257.464 245.332Q260.13 245.332 262.215 243.931Q264.334 242.529 266.009 240.376Q267.684 238.188 268.88 235.659Q270.076 233.13 270.931 231.045Q271.204 230.771 271.272 230.361Q271.341 229.917 271.614 229.644Q271.204 236.377 271.272 242.803Q271.341 249.229 272.195 255.962Q272.469 257.91 273.631 259.756Q274.827 261.567 276.946 261.841L277.493 261.978Q281.287 262.388 283.372 259.448Q284.637 257.637 284.842 254.629Q285.047 251.621 284.773 248.271Q284.5 244.888 283.987 241.743Q283.509 238.599 283.372 236.514Q283.099 233.13 282.962 229.78Q282.825 226.431 282.825 223.047Q283.509 224.448 284.329 225.85Q285.184 227.251 286.175 228.652Q287.986 231.045 290.14 233.232Q292.327 235.386 295.574 236.069Q298.514 236.787 301.146 235.317ZM168.699 201.787Q162.41 202.197 156.394 203.872Q156.805 203.462 157.283 203.12Q157.796 202.744 158.377 202.471Q160.052 201.206 162.273 199.395Q164.529 197.583 166.409 195.43Q168.289 193.242 169.349 190.815Q170.408 188.354 169.69 185.825Q169.417 184.697 168.289 184.355Q167.195 184.014 166.341 184.697Q163.128 187.5 159.129 189.688Q155.13 191.841 151.097 193.379Q149.114 194.233 147.063 195.02Q145.047 195.771 143.099 196.455Q140.706 197.31 138.382 197.583Q136.092 197.856 134.007 199.395Q131.888 200.933 131.409 203.599Q130.931 206.265 133.016 208.213Q133.87 209.067 134.759 209.546Q135.682 210.024 136.673 210.332Q133.87 215.493 132.4 222.705Q130.931 229.917 131.067 237.402Q131.204 244.888 132.947 251.621Q134.69 258.354 138.348 262.524Q140.296 264.78 143.304 264.233Q146.311 263.652 147.986 261.431Q150.652 261.978 153.113 262.183Q155.574 262.388 156.975 262.695Q159.915 262.969 164.256 263.174Q168.597 263.379 172.766 262.832Q174.475 265.19 177.415 265.327Q178.099 265.327 178.235 265.19Q181.585 264.917 184.729 262.969Q187.908 260.986 190.54 258.218Q193.206 255.415 195.359 252.202Q197.547 248.955 199.085 246.016Q202.879 238.872 203.289 230.771Q203.733 222.637 199.666 215.493Q196.453 210.024 191.531 206.948Q186.643 203.872 180.833 202.642Q175.022 201.377 168.699 201.787ZM173.04 209.067Q177.688 209.067 182.439 210.742Q187.635 212.554 190.403 216.279Q193.206 219.971 193.65 224.448Q192.659 224.175 191.394 224.756Q184.969 227.114 178.714 229.028Q172.493 230.908 165.349 231.318Q160.325 231.592 155.335 231.182Q150.379 230.771 145.354 230.635Q145.183 229.37 145.115 228.105Q145.047 226.841 145.047 225.576Q144.91 224.038 145.252 220.552Q145.628 217.031 145.354 213.682Q149.969 213.135 154.583 211.938Q159.197 210.742 163.811 209.922Q168.426 209.067 173.04 209.067ZM331.463 246.392Q329.31 250.356 326.233 254.014Q322.986 248.818 320.389 243.213Q317.825 237.607 314.031 232.72Q313.895 232.446 313.758 232.446Q313.621 232.446 313.484 232.31Q313.484 231.318 313.553 230.361Q313.621 229.37 313.621 228.379L323.123 223.628Q327.771 221.372 330.403 222.432Q333.069 223.491 334.197 226.362Q335.325 229.233 335.257 233.096Q335.188 236.924 334.334 240Q333.65 242.393 331.463 246.392ZM181.858 248.135Q180.183 249.81 178.509 251.074Q173.758 251.211 169.143 252.202Q164.529 253.159 159.744 253.569Q156.975 253.877 154.104 253.945Q151.233 254.014 148.431 254.014Q146.892 245.469 145.901 236.787Q150.652 239.453 156.326 240.581Q162 241.675 167.879 241.606Q173.758 241.538 179.637 240.342Q185.516 239.146 190.574 237.197Q189.583 238.872 188.182 240.786Q186.78 242.666 185.174 244.546Q183.567 246.426 181.858 248.135Z" fill="#FFFFFF" fill-opacity="0.900000"/>
  <defs>
    <filter id="filter_1_22_dd" x="0.000000" y="0.000000" width="464.000000" height="464.000000" filterUnits="userSpaceOnUse" color-interpolation-filters="sRGB">
      <feFlood flood-opacity="0" result="BackgroundImageFix"/>
      <feColorMatrix in="SourceAlpha" type="matrix" values="0 0 0 0 0 0 0 0 0 0 0 0 0 0 0 0 0 0 127 0"/>
      <feOffset dx="0" dy="4"/>
      <feGaussianBlur stdDeviation="1.33333"/>
      <feColorMatrix type="matrix" values="0 0 0 0 0 0 0 0 0 0 0 0 0 0 0 0 0 0 0.25 0"/>
      <feBlend mode="normal" in2="BackgroundImageFix" result="effect_dropShadow_1"/>
      <feBlend mode="normal" in="SourceGraphic" in2="effect_dropShadow_1" result="shape"/>
    </filter>
    <radialGradient id="paint_radial_1_22_0" cx="0.000000" cy="0.000000" r="1.000000" gradientUnits="userSpaceOnUse" gradientTransform="translate(232 228) rotate(90) scale(228 228)">
      <stop stop-color="#34A2DA"/>
      <stop offset="1.000000" stop-color="#FFFFFF"/>
    </radialGradient>
  </defs>
</svg>
