<svg width="464.000000" height="464.000000" viewBox="0 0 464 464" fill="none" xmlns="http://www.w3.org/2000/svg" xmlns:xlink="http://www.w3.org/1999/xlink">
  <desc>
    Created with Pixso.
  </desc>
  <g filter="url(#filter_1_22_dd)">
    <rect x="4.000000" width="456.000000" height="456.000000" fill="url(#paint_radial_1_22_0)" fill-opacity="0.3"/>
  </g>
  <path d="M338.67 258.654Q338.318 256.955 336.883 255.52Q336.268 254.934 335.242 254.816Q334.246 254.67 333.631 255.402Q332.547 256.721 331.521 258.098Q330.525 259.475 329.383 260.383Q328.24 261.291 326.746 261.525Q325.252 261.76 323.318 260.91Q320.564 259.709 318.396 257.453Q323.934 250.949 325.955 242.805Q326.57 240.168 326.863 236.623Q327.156 233.078 326.805 229.592Q326.453 226.105 325.193 223Q323.934 219.895 321.414 218.195Q319.246 216.76 316.785 216.643Q314.324 216.525 311.746 217.375Q309.168 218.195 306.648 219.777Q304.129 221.33 301.961 223.117Q301.844 216.877 300.994 209.934Q300.174 202.961 297.771 196.721Q299.09 197.688 300.408 198.42Q301.727 199.123 302.928 199.709Q307.85 202.346 313.826 203.869Q319.832 205.363 325.252 203.693Q327.039 203.078 327.918 201.701Q328.826 200.324 328.709 198.771Q328.592 197.189 327.684 195.812Q326.805 194.436 324.988 193.85Q322.586 193.117 320.125 192.707Q317.693 192.268 315.232 192.033Q312.771 191.799 310.311 191.447Q307.85 191.066 305.447 190.363Q303.396 189.748 301.404 188.752Q299.441 187.727 297.449 186.701Q295.486 185.676 293.494 184.855Q291.531 184.006 289.363 183.889Q288.748 183.771 288.455 184.182Q288.162 184.592 288.279 185.09L288.631 186.643Q289.012 190.48 289.949 194.084Q290.916 197.688 291.941 201.291Q292.967 204.895 293.846 208.557Q294.754 212.189 294.988 216.027Q295.252 220.246 295.164 224.318Q295.105 228.391 294.52 232.229Q294.402 232.844 293.846 234.66Q293.318 236.447 292.586 238.791Q291.883 241.105 290.975 243.713Q290.066 246.291 289.275 248.4Q288.514 250.48 287.898 251.74Q287.379 252.857 287.136 252.8Q287.105 252.792 287.078 252.766Q286.492 252.033 285.467 252.15Q284.441 252.268 283.826 253.117Q283.24 254.318 283.123 255.168Q283.006 255.988 283.24 257.307Q283.826 259.357 285.496 259.855Q287.195 260.324 288.895 259.592Q291.883 258.273 293.963 256.018Q294.391 255.553 294.792 255.062Q292.748 258.436 293.553 260.793Q294.402 263.195 296.746 264.514Q299.09 265.832 302.254 266.037Q305.447 266.213 307.967 265.129Q310.105 264.279 312.771 262.609Q315.525 265.715 319.012 267.766Q322.469 269.553 326.775 269.846Q331.111 270.168 334.598 267.766Q336.15 266.682 337.234 265.188Q338.318 263.693 338.67 262.023Q339.051 260.324 338.67 258.654ZM295.291 254.427Q295.831 253.931 296.629 253.85Q297.771 253.732 298.709 254.553Q300.76 256.604 302.898 256.486Q305.066 256.369 307.352 255.051Q304.949 250.949 303.455 246.525Q301.961 242.072 301.111 237.883Q300.643 241.252 299.793 244.562Q298.973 247.844 297.508 250.803Q296.549 252.759 295.291 254.427ZM291.268 233.986Q293.553 232.727 294.168 229.973Q294.402 229.006 293.67 228.098Q292.967 227.189 291.766 227.57Q290.33 227.922 289.188 228.156Q288.045 228.391 286.609 227.57Q284.91 226.604 283.592 225.051Q282.273 223.469 281.189 221.916Q279.871 220.246 278.787 218.4Q277.732 216.525 276.648 214.592Q279.637 214.357 282.215 213.537Q284.793 212.688 286.727 211.369Q288.162 210.402 288.631 208.791Q289.129 207.15 288.689 205.715Q288.279 204.279 287.078 203.254Q285.877 202.229 283.973 202.346Q282.039 202.492 280.164 202.844Q278.318 203.195 276.531 203.547Q276.766 200.207 276.707 196.896Q276.648 193.586 276.033 190.363Q275.799 189.631 275.125 189.514Q274.48 189.396 274.129 190.012Q271.844 193.117 270.584 196.838Q269.324 200.559 268.592 204.396L268.357 204.396Q264.52 204.396 260.857 203.195Q257.195 201.994 253.475 201.994Q252.391 201.994 251.717 202.961Q251.072 203.928 251.688 204.895Q253.475 208.352 257.312 210.637Q261.15 212.922 265.721 214.006Q265.105 216.027 264.52 218.02Q263.934 220.012 263.084 221.916Q262.352 223.732 261.326 226.193Q260.33 228.654 258.924 230.939Q257.547 233.195 255.877 235.012Q254.207 236.799 252.156 237.414Q251.189 237.648 250.838 238.439Q250.486 239.201 250.955 240.051L251.453 241.105Q251.688 241.838 252.391 242.219Q253.123 242.57 253.826 242.57Q256.111 242.57 257.898 241.369Q259.715 240.168 261.15 238.322Q262.586 236.447 263.611 234.279Q264.637 232.111 265.369 230.324Q265.604 230.09 265.662 229.738Q265.721 229.357 265.955 229.123Q265.604 234.895 265.662 240.402Q265.721 245.91 266.453 251.682Q266.688 253.352 267.684 254.934Q268.709 256.486 270.525 256.721L270.994 256.838Q274.246 257.189 276.033 254.67Q277.117 253.117 277.293 250.539Q277.469 247.961 277.234 245.09Q277 242.189 276.561 239.494Q276.15 236.799 276.033 235.012Q275.799 232.111 275.682 229.24Q275.564 226.369 275.564 223.469Q276.15 224.67 276.854 225.871Q277.586 227.072 278.436 228.273Q279.988 230.324 281.834 232.199Q283.709 234.045 286.492 234.631Q289.012 235.246 291.268 233.986ZM177.742 205.246Q172.352 205.598 167.195 207.033Q167.547 206.682 167.957 206.389Q168.397 206.066 168.895 205.832Q170.33 204.748 172.234 203.195Q174.168 201.643 175.779 199.797Q177.391 197.922 178.299 195.842Q179.207 193.732 178.592 191.564Q178.358 190.598 177.391 190.305Q176.453 190.012 175.721 190.598Q172.967 193 169.539 194.875Q166.111 196.721 162.654 198.039Q160.955 198.771 159.197 199.445Q157.469 200.09 155.799 200.676Q153.748 201.408 151.756 201.643Q149.793 201.877 148.006 203.195Q146.19 204.514 145.779 206.799Q145.369 209.084 147.156 210.754Q147.889 211.486 148.65 211.896Q149.442 212.307 150.291 212.57Q147.889 216.994 146.629 223.176Q145.369 229.357 145.486 235.773Q145.604 242.189 147.098 247.961Q148.592 253.732 151.727 257.307Q153.397 259.24 155.975 258.771Q158.553 258.273 159.988 256.369Q162.274 256.838 164.383 257.014Q166.492 257.189 167.693 257.453Q170.213 257.688 173.934 257.863Q177.654 258.039 181.229 257.57Q182.693 259.592 185.213 259.709Q185.799 259.709 185.916 259.592Q188.787 259.357 191.483 257.688Q194.207 255.988 196.463 253.615Q198.748 251.213 200.594 248.459Q202.469 245.676 203.787 243.156Q207.039 237.033 207.391 230.09Q207.772 223.117 204.285 216.994Q201.531 212.307 197.313 209.67Q193.123 207.033 188.143 205.979Q183.162 204.895 177.742 205.246ZM181.463 211.486Q185.447 211.486 189.52 212.922Q193.973 214.475 196.346 217.668Q198.748 220.832 199.129 224.67Q198.279 224.436 197.195 224.934Q191.688 226.955 186.326 228.596Q180.994 230.207 174.871 230.559Q170.565 230.793 166.287 230.441Q162.039 230.09 157.733 229.973Q157.586 228.889 157.527 227.805Q157.469 226.721 157.469 225.637Q157.352 224.318 157.645 221.33Q157.967 218.312 157.733 215.441Q161.688 214.973 165.643 213.947Q169.598 212.922 173.553 212.219Q177.508 211.486 181.463 211.486ZM317.254 243.479Q315.408 246.877 312.771 250.012Q309.988 245.559 307.762 240.754Q305.564 235.949 302.312 231.76Q302.195 231.525 302.078 231.525Q301.961 231.525 301.844 231.408Q301.844 230.559 301.902 229.738Q301.961 228.889 301.961 228.039L310.105 223.967Q314.09 222.033 316.346 222.941Q318.631 223.85 319.598 226.311Q320.564 228.771 320.506 232.082Q320.447 235.363 319.715 238Q319.129 240.051 317.254 243.479ZM189.022 244.973Q187.586 246.408 186.15 247.492Q182.078 247.609 178.123 248.459Q174.168 249.279 170.067 249.631Q167.693 249.895 165.233 249.953Q162.772 250.012 160.369 250.012Q159.051 242.688 158.201 235.246Q162.274 237.531 167.137 238.498Q172 239.436 177.039 239.377Q182.078 239.318 187.117 238.293Q192.156 237.268 196.492 235.598Q195.643 237.033 194.442 238.674Q193.24 240.285 191.863 241.896Q190.486 243.508 189.022 244.973Z" fill="#FFFFFF"/>
  <defs>
    <filter id="filter_1_22_dd" x="0.000000" y="0.000000" width="464.000000" height="464.000000" filterUnits="userSpaceOnUse" color-interpolation-filters="sRGB">
      <feFlood flood-opacity="0" result="BackgroundImageFix"/>
      <feColorMatrix in="SourceAlpha" type="matrix" values="0 0 0 0 0 0 0 0 0 0 0 0 0 0 0 0 0 0 127 0"/>
      <feOffset dx="0" dy="4"/>
      <feGaussianBlur stdDeviation="1.33333"/>
      <feColorMatrix type="matrix" values="0 0 0 0 0 0 0 0 0 0 0 0 0 0 0 0 0 0 0.25 0"/>
      <feBlend mode="normal" in2="BackgroundImageFix" result="effect_dropShadow_1"/>
      <feBlend mode="normal" in="SourceGraphic" in2="effect_dropShadow_1" result="shape"/>
    </filter>
    <radialGradient id="paint_radial_1_22_0" cx="0.000000" cy="0.000000" r="1.000000" gradientUnits="userSpaceOnUse" gradientTransform="translate(232 228) rotate(90) scale(228 228)">
      <stop stop-color="#34A2DA" stop-opacity="0.101961"/>
      <stop offset="1.000000" stop-color="#FFFFFF"/>
    </radialGradient>
  </defs>
</svg>
