<svg width="420.000000" height="300.000000" viewBox="0 0 420 300" fill="none" xmlns="http://www.w3.org/2000/svg" xmlns:xlink="http://www.w3.org/1999/xlink">
  <desc>
    Created with Pixso.
  </desc>
  <rect x="0.050003" y="0.049988" rx="16.000000" width="419.899994" height="299.899994" fill="#F4F4F4"/>
  <rect x="0.050003" y="0.049988" rx="16.000000" width="419.899994" height="299.899994" stroke="#FFFFFF" stroke-width="0.100000"/>
  <rect rx="16.000000" width="420.000000" height="300.000000" fill="url(#paint_linear_3_5_0)"/>
  <g filter="url(#filter_3_11_dd)">
    <path d="M149.769 37.5167C186.372 23.9545 271.934 8.7648 321.349 56.5038C383.117 116.178 180.653 139.572 149.769 143.302C118.884 147.032 255.004 207.384 165.783 199.246C126.434 167.511 97.5322 183.989 88 196.195" stroke="url(#paint_linear_3_11_0)"/>
  </g>
  <path d="M214.271 135.129C214.271 139.223 212.958 141.207 210.849 141.207C208.72 141.207 207.408 139.223 207.408 135.129C207.408 131.078 208.72 129.129 210.849 129.129C212.958 129.129 214.271 131.078 214.271 135.129ZM226.831 135.129C226.831 139.223 225.518 141.207 223.409 141.207C221.28 141.207 219.968 139.223 219.968 135.129C219.968 131.078 221.28 129.129 223.409 129.129C225.518 129.129 226.831 131.078 226.831 135.129ZM201.488 141L195.473 141L195.473 140.184L198.113 140.184L198.113 130.695L196.078 130.695L196.078 130.07C197.023 129.91 197.742 129.656 198.305 129.336L199.055 129.336L199.055 140.184L201.488 140.184L201.488 141ZM208.337 135.129C208.337 138.664 209.33 140.426 210.849 140.426C212.353 140.426 213.345 138.664 213.345 135.129C213.345 131.656 212.353 129.91 210.849 129.91C209.33 129.91 208.337 131.656 208.337 135.129ZM220.897 135.129C220.897 138.664 221.89 140.426 223.409 140.426C224.913 140.426 225.905 138.664 225.905 135.129C225.905 131.656 224.913 129.91 223.409 129.91C221.89 129.91 220.897 131.656 220.897 135.129ZM205.376 140.344C205.376 140.871 204.994 141.207 204.56 141.207C204.126 141.207 203.744 140.871 203.744 140.344C203.744 139.801 204.126 139.465 204.56 139.465C204.994 139.465 205.376 139.801 205.376 140.344ZM217.936 140.344C217.936 140.871 217.554 141.207 217.12 141.207C216.686 141.207 216.304 140.871 216.304 140.344C216.304 139.801 216.686 139.465 217.12 139.465C217.554 139.465 217.936 139.801 217.936 140.344Z" fill="#F4F4F4"/>
  <path d="M208.231 275L207.87 275L207.87 267.061L208.231 267.061L208.231 270.591C208.79 270.02 209.339 269.6 210.069 269.6C211.151 269.6 211.659 270.249 211.659 271.609L211.659 275L211.3 275L211.3 271.66C211.3 270.5 210.929 269.929 210.03 269.929C209.381 269.929 208.9 270.281 208.231 270.969L208.231 275ZM178.75 274.099C178.2 274.741 177.561 275.129 176.621 275.129C174.831 275.129 173.62 273.64 173.62 271.35C173.62 269.06 174.841 267.61 176.679 267.61C177.519 267.61 178.161 268.03 178.53 268.469L178.3 268.721C177.91 268.269 177.36 267.959 176.679 267.959C175.019 267.959 174.011 269.27 174.011 271.35C174.011 273.43 175.019 274.78 176.64 274.78C177.399 274.78 177.971 274.47 178.52 273.86L178.75 274.099ZM229.469 275L225.219 275L225.219 274.771C227.799 272.561 228.73 271.021 228.73 269.651C228.73 268.711 228.251 267.939 227.14 267.939C226.491 267.939 225.89 268.32 225.451 268.87L225.199 268.64C225.71 268.069 226.32 267.61 227.17 267.61C228.4 267.61 229.111 268.42 229.111 269.651C229.111 271.24 227.919 272.781 225.82 274.719C226.22 274.69 226.62 274.67 227.011 274.67L229.469 274.67L229.469 275ZM234.631 271.35C234.631 273.911 233.849 275.129 232.58 275.129C231.291 275.129 230.519 273.911 230.519 271.35C230.519 268.821 231.291 267.61 232.58 267.61C233.849 267.61 234.631 268.821 234.631 271.35ZM239.889 275L235.639 275L235.639 274.771C238.219 272.561 239.15 271.021 239.15 269.651C239.15 268.711 238.671 267.939 237.56 267.939C236.911 267.939 236.31 268.32 235.871 268.87L235.619 268.64C236.13 268.069 236.74 267.61 237.59 267.61C238.82 267.61 239.531 268.42 239.531 269.651C239.531 271.24 238.339 272.781 236.24 274.719C236.64 274.69 237.04 274.67 237.431 274.67L239.889 274.67L239.889 275ZM245.099 275L240.849 275L240.849 274.771C243.429 272.561 244.36 271.021 244.36 269.651C244.36 268.711 243.881 267.939 242.77 267.939C242.121 267.939 241.52 268.32 241.081 268.87L240.829 268.64C241.34 268.069 241.95 267.61 242.8 267.61C244.03 267.61 244.741 268.42 244.741 269.651C244.741 271.24 243.549 272.781 241.449 274.719C241.85 274.69 242.25 274.67 242.641 274.67L245.099 274.67L245.099 275ZM200.701 268.02C200.701 268.25 200.51 268.401 200.31 268.401C200.1 268.401 199.929 268.25 199.929 268.02C199.929 267.771 200.1 267.629 200.31 267.629C200.51 267.629 200.701 267.771 200.701 268.02ZM230.89 271.35C230.89 273.579 231.55 274.8 232.58 274.8C233.6 274.8 234.259 273.579 234.259 271.35C234.259 269.15 233.6 267.93 232.58 267.93C231.55 267.93 230.89 269.15 230.89 271.35ZM222.179 275.979C221.55 276.37 220.871 276.57 220.119 276.57C218.01 276.57 216.479 275.161 216.479 272.781C216.479 269.929 218.52 268.081 220.79 268.081C222.88 268.081 224.189 269.451 224.189 271.521C224.189 273.369 223.1 274.36 222.221 274.36C221.64 274.36 221.22 274.099 221.181 273.53L221.159 273.53C220.761 273.94 220.319 274.299 219.809 274.299C219.15 274.299 218.571 273.811 218.571 272.82C218.571 271.78 219.311 270.371 220.61 270.371C221 270.371 221.31 270.549 221.53 270.901L221.55 270.901L221.64 270.459L221.94 270.459L221.559 272.49C221.301 273.54 221.54 274.041 222.241 274.041C222.951 274.041 223.84 273.14 223.84 271.55C223.84 269.609 222.641 268.401 220.761 268.401C218.74 268.401 216.821 270.12 216.821 272.759C216.821 274.89 218.151 276.24 220.141 276.24C220.89 276.24 221.491 276.021 222.011 275.701L222.179 275.979ZM215.8 274.929C215.49 275.039 215.16 275.129 214.98 275.129C214.001 275.129 213.739 274.519 213.739 273.601L213.739 270.061L212.9 270.061L212.9 269.78L213.739 269.729L213.781 268.191L214.091 268.191L214.091 269.729L215.651 269.729L215.651 270.061L214.091 270.061L214.091 273.65C214.091 274.331 214.24 274.8 215.009 274.8C215.209 274.8 215.49 274.719 215.68 274.629L215.8 274.929ZM184.461 272.38C184.461 274.121 183.379 275.129 182.12 275.129C180.86 275.129 179.781 274.121 179.781 272.38C179.781 270.61 180.86 269.6 182.12 269.6C183.379 269.6 184.461 270.61 184.461 272.38ZM186.461 277.429L186.1 277.429L186.1 269.729L186.4 269.729L186.461 270.41L186.481 270.41C187.001 270 187.631 269.6 188.29 269.6C189.72 269.6 190.409 270.659 190.409 272.29C190.409 274.08 189.33 275.129 188.07 275.129C187.57 275.129 187.02 274.89 186.461 274.47L186.461 277.429ZM197.091 275L196.73 275L196.73 269.729L197.03 269.729L197.091 270.72L197.111 270.72C197.46 270.081 197.97 269.6 198.6 269.6C198.781 269.6 198.929 269.619 199.11 269.709L199.02 270.039C198.849 269.971 198.761 269.951 198.551 269.951C198.08 269.951 197.499 270.32 197.091 271.36L197.091 275ZM206.701 275.801C206.701 276.689 205.751 277.571 204.269 277.571C202.931 277.571 202.111 276.98 202.111 276.101C202.111 275.64 202.421 275.149 202.909 274.8L202.909 274.761C202.641 274.6 202.44 274.319 202.44 273.921C202.44 273.44 202.79 273.11 203.019 272.949L203.019 272.91C202.689 272.62 202.35 272.1 202.35 271.46C202.35 270.391 203.151 269.6 204.159 269.6C204.459 269.6 204.701 269.67 204.85 269.729L206.61 269.729L206.61 270.061L205.351 270.061C205.719 270.371 205.971 270.859 205.971 271.46C205.971 272.51 205.18 273.33 204.159 273.33C203.859 273.33 203.51 273.24 203.27 273.091C203.029 273.279 202.809 273.53 202.809 273.889C202.809 274.29 203.029 274.619 203.839 274.619L205.011 274.619C206.171 274.619 206.701 274.99 206.701 275.801ZM193.451 275.74C193.18 276.56 192.65 277.439 191.74 277.439C191.559 277.439 191.359 277.4 191.229 277.329L191.32 277C191.43 277.051 191.601 277.09 191.759 277.09C192.421 277.09 192.87 276.45 193.161 275.61L193.31 275.12L191.129 269.729L191.53 269.729L192.86 273.169C193.029 273.621 193.251 274.18 193.451 274.651L193.5 274.651C193.671 274.18 193.849 273.621 194 273.169L195.18 269.729L195.551 269.729L193.451 275.74ZM200.481 275L200.12 275L200.12 269.729L200.481 269.729L200.481 275ZM180.159 272.38C180.159 273.821 180.999 274.8 182.12 274.8C183.24 274.8 184.09 273.821 184.09 272.38C184.09 270.93 183.24 269.929 182.12 269.929C180.999 269.929 180.159 270.93 180.159 272.38ZM188.26 269.929C187.721 269.929 187.13 270.259 186.461 270.84L186.461 274.089C187.079 274.609 187.679 274.8 188.099 274.8C189.22 274.8 190.03 273.76 190.03 272.29C190.03 270.95 189.549 269.929 188.26 269.929ZM202.731 271.46C202.731 272.371 203.4 273 204.159 273C204.931 273 205.6 272.371 205.6 271.46C205.6 270.52 204.95 269.929 204.159 269.929C203.38 269.929 202.731 270.51 202.731 271.46ZM218.92 272.8C218.92 273.669 219.34 273.979 219.85 273.979C220.209 273.979 220.629 273.74 221.091 273.21L221.44 271.26C221.159 270.83 220.939 270.701 220.58 270.701C219.56 270.701 218.92 271.831 218.92 272.8ZM202.489 276.069C202.489 276.77 203.141 277.251 204.291 277.251C205.551 277.251 206.33 276.531 206.33 275.84C206.33 275.22 205.89 274.98 205.06 274.98L203.859 274.98C203.79 274.98 203.51 274.961 203.219 274.89C202.699 275.239 202.489 275.681 202.489 276.069Z" fill="#000000" fill-opacity="0.900000"/>
  <path d="M164.45 260.09C164.359 260.11 164.301 260.129 164.149 260.129C163.81 260.129 163.61 259.919 163.61 259.409L163.61 252.061L163.971 252.061L163.971 259.47C163.971 259.69 164.049 259.8 164.191 259.8C164.23 259.8 164.269 259.8 164.379 259.78L164.45 260.09ZM244.66 260.09C244.569 260.11 244.511 260.129 244.359 260.129C244.02 260.129 243.82 259.919 243.82 259.409L243.82 252.061L244.181 252.061L244.181 259.47C244.181 259.69 244.259 259.8 244.401 259.8C244.44 259.8 244.479 259.8 244.589 259.78L244.66 260.09ZM258.441 260L258.08 260L258.08 252.061L258.441 252.061L258.441 258.059L258.461 258.059L261.17 254.729L261.59 254.729L259.889 256.809L261.891 260L261.5 260L259.679 257.08L258.441 258.55L258.441 260ZM181.979 260L177.729 260L177.729 259.771C180.309 257.561 181.24 256.021 181.24 254.651C181.24 253.711 180.761 252.939 179.65 252.939C179.001 252.939 178.4 253.32 177.961 253.87L177.709 253.64C178.22 253.069 178.83 252.61 179.68 252.61C180.91 252.61 181.621 253.42 181.621 254.651C181.621 256.24 180.429 257.781 178.33 259.719C178.73 259.69 179.13 259.67 179.521 259.67L181.979 259.67L181.979 260ZM185.649 252.61C186.269 252.61 186.721 252.871 187.08 253.269L186.84 253.521C186.53 253.13 186.101 252.939 185.639 252.939C184.479 252.939 183.491 253.85 183.471 256.541C183.969 255.93 184.609 255.559 185.28 255.559C186.52 255.559 187.231 256.35 187.231 257.839C187.231 259.16 186.359 260.129 185.351 260.129C183.94 260.129 183.1 258.84 183.1 256.609C183.1 253.621 184.311 252.61 185.649 252.61ZM202.771 256.35C202.771 258.911 201.989 260.129 200.72 260.129C199.431 260.129 198.659 258.911 198.659 256.35C198.659 253.821 199.431 252.61 200.72 252.61C201.989 252.61 202.771 253.821 202.771 256.35ZM208.029 260L203.779 260L203.779 259.771C206.359 257.561 207.29 256.021 207.29 254.651C207.29 253.711 206.811 252.939 205.7 252.939C205.051 252.939 204.45 253.32 204.011 253.87L203.759 253.64C204.27 253.069 204.88 252.61 205.73 252.61C206.96 252.61 207.67 253.42 207.67 254.651C207.67 256.24 206.479 257.781 204.379 259.719C204.78 259.69 205.18 259.67 205.571 259.67L208.029 259.67L208.029 260ZM218.449 260L214.199 260L214.199 259.771C216.779 257.561 217.71 256.021 217.71 254.651C217.71 253.711 217.231 252.939 216.12 252.939C215.471 252.939 214.87 253.32 214.431 253.87L214.179 253.64C214.69 253.069 215.3 252.61 216.15 252.61C217.38 252.61 218.09 253.42 218.09 254.651C218.09 256.24 216.899 257.781 214.799 259.719C215.2 259.69 215.6 259.67 215.991 259.67L218.449 259.67L218.449 260ZM161.741 253.02C161.741 253.25 161.55 253.401 161.35 253.401C161.14 253.401 160.969 253.25 160.969 253.02C160.969 252.771 161.14 252.629 161.35 252.629C161.55 252.629 161.741 252.771 161.741 253.02ZM171.241 253.02C171.241 253.25 171.05 253.401 170.85 253.401C170.64 253.401 170.469 253.25 170.469 253.02C170.469 252.771 170.64 252.629 170.85 252.629C171.05 252.629 171.241 252.771 171.241 253.02ZM197.651 258.311C197.651 259.319 196.799 260.129 195.549 260.129C194.26 260.129 193.339 259.299 193.339 258.201C193.339 257.18 194.111 256.44 194.77 256.079L194.77 256.04C194.26 255.71 193.759 255.171 193.759 254.409C193.759 253.379 194.55 252.649 195.549 252.649C196.74 252.649 197.419 253.469 197.419 254.541C197.419 255.349 196.811 256.05 196.42 256.379L196.42 256.431C197.021 256.799 197.651 257.319 197.651 258.311ZM142.11 260L138.101 260L138.101 252.739L142 252.739L142 253.069L138.47 253.069L138.47 255.959L141.431 255.959L141.431 256.289L138.47 256.289L138.47 259.67L142.11 259.67L142.11 260ZM176.74 257.69C176.74 259.25 175.629 260.129 174.531 260.129C173.41 260.129 172.79 259.629 172.35 259.189L172.58 258.921C172.99 259.36 173.539 259.8 174.55 259.8C175.51 259.8 176.359 258.96 176.359 257.71C176.359 256.47 175.661 255.701 174.57 255.701C174.03 255.701 173.649 255.901 173.239 256.179L172.939 256.001L173.2 252.739L176.369 252.739L176.369 253.069L173.53 253.069L173.29 255.74C173.659 255.51 174.059 255.359 174.599 255.359C175.79 255.359 176.74 256.069 176.74 257.69ZM192.219 260L188.64 260L188.64 259.67L190.31 259.67L190.31 253.42L189.04 253.42L189.04 253.159C189.599 253.069 190.041 252.92 190.351 252.739L190.661 252.739L190.661 259.67L192.219 259.67L192.219 260ZM213.059 260L209.48 260L209.48 259.67L211.15 259.67L211.15 253.42L209.88 253.42L209.88 253.159C210.439 253.069 210.881 252.92 211.191 252.739L211.501 252.739L211.501 259.67L213.059 259.67L213.059 260ZM199.03 256.35C199.03 258.579 199.689 259.8 200.72 259.8C201.74 259.8 202.399 258.579 202.399 256.35C202.399 254.15 201.74 252.93 200.72 252.93C199.689 252.93 199.03 254.15 199.03 256.35ZM194.13 254.409C194.13 255.471 195.129 255.901 196.081 256.27C196.711 255.769 197.06 255.19 197.06 254.541C197.06 253.701 196.511 252.971 195.549 252.971C194.709 252.971 194.13 253.589 194.13 254.409ZM225.219 260.979C224.59 261.37 223.911 261.57 223.159 261.57C221.049 261.57 219.519 260.161 219.519 257.781C219.519 254.929 221.56 253.081 223.83 253.081C225.92 253.081 227.229 254.451 227.229 256.521C227.229 258.369 226.14 259.36 225.261 259.36C224.68 259.36 224.26 259.099 224.221 258.53L224.199 258.53C223.801 258.94 223.359 259.299 222.849 259.299C222.19 259.299 221.611 258.811 221.611 257.82C221.611 256.78 222.351 255.371 223.65 255.371C224.04 255.371 224.35 255.549 224.57 255.901L224.59 255.901L224.68 255.459L224.98 255.459L224.599 257.49C224.34 258.54 224.58 259.041 225.28 259.041C225.991 259.041 226.88 258.14 226.88 256.55C226.88 254.609 225.681 253.401 223.801 253.401C221.779 253.401 219.861 255.12 219.861 257.759C219.861 259.89 221.191 261.24 223.181 261.24C223.93 261.24 224.531 261.021 225.051 260.701L225.219 260.979ZM242.66 259.929C242.35 260.039 242.02 260.129 241.84 260.129C240.861 260.129 240.599 259.519 240.599 258.601L240.599 255.061L239.759 255.061L239.759 254.78L240.599 254.729L240.641 253.191L240.951 253.191L240.951 254.729L242.511 254.729L242.511 255.061L240.951 255.061L240.951 258.65C240.951 259.331 241.1 259.8 241.869 259.8C242.069 259.8 242.35 259.719 242.54 259.629L242.66 259.929ZM147.271 260L146.91 260L146.91 254.729L147.21 254.729L147.271 255.569L147.291 255.569C147.769 255.02 148.38 254.6 148.961 254.6C149.82 254.6 150.24 255.039 150.411 255.701C151.031 255.02 151.619 254.6 152.22 254.6C153.25 254.6 153.78 255.249 153.78 256.609L153.78 260L153.431 260L153.431 256.66C153.431 255.5 153.03 254.929 152.181 254.929C151.661 254.929 151.141 255.281 150.521 255.969L150.521 260L150.169 260L150.169 256.66C150.169 255.5 149.781 254.929 148.929 254.929C148.421 254.929 147.869 255.281 147.271 255.969L147.271 260ZM158.83 259.299C158.29 259.741 157.631 260.129 156.93 260.129C156.11 260.129 155.409 259.7 155.409 258.701C155.409 257.529 156.481 256.98 158.849 256.709C158.881 255.859 158.661 254.929 157.57 254.929C156.82 254.929 156.19 255.3 155.851 255.569L155.67 255.281C156 255.039 156.73 254.6 157.589 254.6C158.83 254.6 159.21 255.52 159.21 256.589L159.21 260L158.91 260L158.859 259.299L158.83 259.299ZM233.071 257.38C233.071 259.121 231.989 260.129 230.73 260.129C229.47 260.129 228.391 259.121 228.391 257.38C228.391 255.61 229.47 254.6 230.73 254.6C231.989 254.6 233.071 255.61 233.071 257.38ZM250.581 257.38C250.581 259.121 249.499 260.129 248.24 260.129C246.98 260.129 245.901 259.121 245.901 257.38C245.901 255.61 246.98 254.6 248.24 254.6C249.499 254.6 250.581 255.61 250.581 257.38ZM256.441 257.38C256.441 259.121 255.359 260.129 254.1 260.129C252.84 260.129 251.761 259.121 251.761 257.38C251.761 255.61 252.84 254.6 254.1 254.6C255.359 254.6 256.441 255.61 256.441 257.38ZM269.049 259.431C268.609 259.819 268.05 260.129 267.369 260.129C266.029 260.129 265.011 259.121 265.011 257.38C265.011 255.61 266.109 254.6 267.379 254.6C268.099 254.6 268.57 254.929 268.919 255.259L268.69 255.52C268.341 255.19 267.921 254.929 267.379 254.929C266.27 254.929 265.389 255.93 265.389 257.38C265.389 258.821 266.18 259.8 267.379 259.8C267.96 259.8 268.47 259.519 268.839 259.17L269.049 259.431ZM274.431 257.38C274.431 259.121 273.349 260.129 272.09 260.129C270.83 260.129 269.751 259.121 269.751 257.38C269.751 255.61 270.83 254.6 272.09 254.6C273.349 254.6 274.431 255.61 274.431 257.38ZM276.431 260L276.07 260L276.07 254.729L276.37 254.729L276.431 255.569L276.451 255.569C276.929 255.02 277.539 254.6 278.12 254.6C278.98 254.6 279.4 255.039 279.571 255.701C280.191 255.02 280.779 254.6 281.38 254.6C282.41 254.6 282.94 255.249 282.94 256.609L282.94 260L282.591 260L282.591 256.66C282.591 255.5 282.19 254.929 281.341 254.929C280.821 254.929 280.301 255.281 279.68 255.969L279.68 260L279.329 260L279.329 256.66C279.329 255.5 278.941 254.929 278.089 254.929C277.581 254.929 277.029 255.281 276.431 255.969L276.431 260ZM161.521 260L161.16 260L161.16 254.729L161.521 254.729L161.521 260ZM171.021 261.101C171.021 262.109 170.66 262.561 169.92 262.561C169.7 262.561 169.429 262.5 169.28 262.429L169.371 262.141C169.5 262.18 169.72 262.251 169.94 262.251C170.55 262.251 170.66 261.741 170.66 261.06L170.66 254.729L171.021 254.729L171.021 261.101ZM238.02 259.099C237.49 259.709 236.939 260.129 236.209 260.129C235.13 260.129 234.619 259.49 234.619 258.12L234.619 254.729L234.981 254.729L234.981 258.081C234.981 259.241 235.349 259.8 236.24 259.8C236.89 259.8 237.381 259.451 238.03 258.669L238.03 254.729L238.389 254.729L238.389 260L238.079 260L238.04 259.099L238.02 259.099ZM228.769 257.38C228.769 258.821 229.609 259.8 230.73 259.8C231.85 259.8 232.7 258.821 232.7 257.38C232.7 255.93 231.85 254.929 230.73 254.929C229.609 254.929 228.769 255.93 228.769 257.38ZM246.279 257.38C246.279 258.821 247.119 259.8 248.24 259.8C249.36 259.8 250.21 258.821 250.21 257.38C250.21 255.93 249.36 254.929 248.24 254.929C247.119 254.929 246.279 255.93 246.279 257.38ZM252.139 257.38C252.139 258.821 252.979 259.8 254.1 259.8C255.22 259.8 256.07 258.821 256.07 257.38C256.07 255.93 255.22 254.929 254.1 254.929C252.979 254.929 252.139 255.93 252.139 257.38ZM270.129 257.38C270.129 258.821 270.969 259.8 272.09 259.8C273.21 259.8 274.06 258.821 274.06 257.38C274.06 255.93 273.21 254.929 272.09 254.929C270.969 254.929 270.129 255.93 270.129 257.38ZM166.66 255.42C166.66 255.701 166.46 255.85 166.25 255.85C166.05 255.85 165.849 255.701 165.849 255.42C165.849 255.129 166.05 254.971 166.25 254.971C166.46 254.971 166.66 255.129 166.66 255.42ZM221.96 257.8C221.96 258.669 222.38 258.979 222.89 258.979C223.249 258.979 223.669 258.74 224.131 258.21L224.48 256.26C224.199 255.83 223.979 255.701 223.62 255.701C222.6 255.701 221.96 256.831 221.96 257.8ZM183.481 256.97C183.549 258.621 184.13 259.8 185.371 259.8C186.22 259.8 186.85 258.931 186.85 257.839C186.85 256.731 186.401 255.869 185.261 255.869C184.75 255.869 184.069 256.179 183.481 256.97ZM193.71 258.201C193.71 259.089 194.48 259.8 195.549 259.8C196.601 259.8 197.27 259.131 197.27 258.311C197.27 257.109 196.159 256.689 195.041 256.25C194.26 256.689 193.71 257.351 193.71 258.201ZM155.78 258.689C155.78 259.5 156.32 259.8 156.959 259.8C157.589 259.8 158.161 259.5 158.849 258.911L158.849 257.019C156.559 257.271 155.78 257.8 155.78 258.689ZM145.45 257.439L143.059 257.439L143.059 257.09L145.45 257.09L145.45 257.439ZM166.66 259.7C166.66 259.971 166.46 260.129 166.25 260.129C166.05 260.129 165.849 259.971 165.849 259.7C165.849 259.409 166.05 259.25 166.25 259.25C166.46 259.25 166.66 259.409 166.66 259.7ZM263.8 259.7C263.8 259.971 263.6 260.129 263.39 260.129C263.19 260.129 262.989 259.971 262.989 259.7C262.989 259.409 263.19 259.25 263.39 259.25C263.6 259.25 263.8 259.409 263.8 259.7Z" fill="#000000" fill-opacity="0.900000"/>
  <path d="M164.945 172.465Q165.121 172.527 165.199 172.734L165.199 167.664L154.32 167.664L154.625 167.984L154.625 175.055L156.703 175.055L156.703 172.398L164.625 172.398Q164.77 172.398 164.945 172.465ZM233.201 167.68L233.486 168L233.486 170.273L224.4 170.273L224.654 170.594L224.654 175.07L235.584 175.07L235.584 167.68L233.201 167.68ZM244.225 167.68L244.529 168L244.529 175.07L255.15 175.07L255.15 170.273L246.623 170.273L246.623 167.68L244.225 167.68ZM163.121 171.297L156.703 171.297L156.703 168.785L163.121 168.785L163.121 171.297ZM186.4 169.457L183.65 169.457L184.142 169.855L182.529 173.887L180.56 169.457L178.048 169.457L178.591 169.855L181.103 175.07L183.361 175.07L185.025 170.992L186.927 175.07L189.169 175.07L191.49 169.457L190.048 169.457L188.353 173.809L186.4 169.457ZM257.168 178.191L259.214 178.191L265.648 169.457L263.503 169.457L261.281 172.527L258.8 169.457L255.793 169.457L256.562 169.84L260.128 174.098L257.168 178.191ZM165.84 170.258L166.145 170.574L166.145 175.055L177.407 175.055L177.407 170.258L165.84 170.258ZM202.624 175.137Q202.8 175.199 202.878 175.391L202.878 173.953L194.511 173.953L194.511 173.121L202.304 173.121Q202.449 173.121 202.624 173.176Q202.8 173.23 202.878 173.441L202.878 170.258L192.128 170.258L192.417 170.559L192.417 175.07L202.304 175.07Q202.449 175.07 202.624 175.137ZM203.52 170.258L203.825 170.574L203.825 175.07L205.903 175.07L205.903 172.688L211.794 171.602Q211.934 171.602 212.11 171.664Q212.29 171.727 212.368 171.922L212.368 170.258L205.903 171.551L205.903 170.258L203.52 170.258ZM223.505 175.137Q223.68 175.199 223.758 175.391L223.758 173.953L215.391 173.953L215.391 173.121L223.184 173.121Q223.329 173.121 223.505 173.176Q223.68 173.23 223.758 173.441L223.758 170.258L213.008 170.258L213.298 170.559L213.298 175.07L223.184 175.07Q223.329 175.07 223.505 175.137ZM200.8 172L194.511 172L194.511 171.359L200.8 171.359L200.8 172ZM221.68 172L215.391 172L215.391 171.359L221.68 171.359L221.68 172ZM168.223 173.953L168.223 171.375L175.329 171.375L175.329 173.953L168.223 173.953ZM233.486 173.969L226.736 173.969L226.736 171.375L233.486 171.375L233.486 173.969ZM246.623 173.969L246.623 171.375L253.072 171.375L253.072 173.969L246.623 173.969ZM192.968 186.785L197.16 186.785L197.16 193.055L199.242 193.055L199.242 186.785L202.968 186.785Q203.113 186.785 203.289 186.84Q203.464 186.895 203.543 187.105L203.543 185.664L193.464 185.664L192.968 185.391L192.968 186.785ZM178.745 186.785L178.745 193.055L180.824 193.055L180.824 185.664L169.96 185.664L170.249 185.984L170.249 193.055L172.327 193.055L172.327 186.785L178.745 186.785ZM191.761 189.984Q191.929 190.047 192.007 190.238L192.007 188.801L183.831 188.801L183.831 186.77L191.753 186.77Q191.898 186.77 192.081 186.832Q192.265 186.895 192.328 187.105L192.328 185.664L181.464 185.664L181.769 185.984L181.769 193.055L191.753 193.055Q191.898 193.055 192.081 193.121Q192.265 193.184 192.328 193.375L192.328 191.938L183.831 191.938L183.831 189.922L191.433 189.922Q191.593 189.922 191.761 189.984ZM238.872 185.664L239.161 185.984L239.161 193.07L249.177 193.07Q249.322 193.07 249.497 193.129Q249.673 193.184 249.751 193.375L249.751 185.664L247.368 185.664L247.658 185.984L247.658 191.938L241.255 191.938L241.255 185.664L238.872 185.664ZM214.262 193.055L216.122 187.297L217.942 193.055L220.122 193.055L221.942 187.344L223.751 193.055L225.192 193.055L222.743 185.68L220.122 185.68L220.407 186L218.712 191.023L216.934 185.68L214.262 185.68L214.552 186L212.184 193.055L214.262 193.055ZM236.168 193.055L238.231 193.055L234.551 185.68L229.114 185.68L229.414 186L225.832 193.055L227.895 193.055L229.239 190.336L234.84 190.336L236.168 193.055ZM250.392 185.68L250.681 186L250.681 193.055L252.775 193.055L252.775 185.68L250.392 185.68ZM234.282 189.215L229.785 189.215L231 186.785L233.098 186.785L234.282 189.215ZM169.318 191.344L167.224 191.344L167.224 193.055L169.318 193.055L169.318 191.344Z" fill="#F3E6FF"/>
  <path d="M151.5 58Q151.75 58.25 153 58.25L156.5 58.25Q157.75 58.25 158 58Q158.75 57.5 159 57Q159.5 55.5 159.5 53.75Q159.5 52 159 50.5Q158.75 50 158 49.5L157 49.25Q156.75 48.75 156 48.25Q155.5 48 154.5 48L151 48.25Q149.75 48.25 149.5 48.5Q148.75 49 148.5 49.5Q148 51 148 52.75Q148 54.25 148.5 55.75Q148.75 56.25 149.5 56.75L150.5 57Q150.75 57.5 151.5 58ZM85.25 90Q87.5 90 88.75 89.75Q90 89.75 90.5 88.5L93.75 74L96.75 87.25Q97.25 88.5 98.5 88.5L98.75 88.5Q99.25 89.75 100.5 89.75Q101.75 90 104 90Q106.25 90 107.25 89.5L107.75 88.25L118 54Q118.25 53 117.75 52Q116 50.25 114.75 50Q113 48.25 110.25 48.25L109.5 48.25Q108.5 48.25 108 49.5L102.5 69L98.5 51.25Q98 50 96.75 50L96.5 50Q96 48.75 94.75 48.75L90.75 48.75Q89.5 48.75 89 50L84.75 68.25L80.5 51.25Q80.25 49.75 79 49.75L78.5 49.75Q78 48.5 77 48.5Q72.75 48 70.5 50.75Q70 51.75 70.25 52.75L79.5 87Q80 88.25 80.75 88.5L81.5 88.5Q81.75 89.5 82.75 89.75L85.25 90ZM123.5 89.25Q124.75 90 126 90Q128.25 90 129 89.75Q130.25 89.5 131.25 88.5Q132 88 131.5 86.75L131.5 73.5L132.5 73.75Q134.75 73.75 135.5 73.5L135 86.5Q135 88.25 137.25 88.5Q137.75 90 141 90Q145.25 90 145.25 88Q146 80.5 146 70Q146 66.75 145.5 65.75Q145.25 65.25 144.5 64.75L143.5 64.5Q143.25 64 142.5 63.5Q142.25 63.25 141 63.25Q136 63 131.5 63.75Q131.5 54.5 131.25 52.5Q131.5 50.25 129 49.75Q128.25 48.25 125 48.25Q122.5 48.5 121.5 49.25Q120.25 49.75 120.25 62L120.5 79.5Q120.5 87.25 121.5 88L123 88.75L123.5 89.25ZM220.75 91.5Q221.5 91.75 224 91.75Q228 91.75 230.75 90.75L231.75 90.25Q232.75 90.75 234.75 90.75Q239 90.75 239 88.75L239.5 83Q239.75 81.75 239.75 78L239.75 70L239.5 66.5Q239.5 65 238.25 65L237.5 64.75Q237 63.75 236.25 63.75Q234 63.25 229.5 63.25L225.75 63.75L225.75 52.75Q225.75 51.5 225.5 51Q225 50.25 223.5 49.75Q222.5 48.25 218.75 48.25Q218 48.25 216.5 48.75Q216 49 215.5 49.75Q215.25 50 215.25 51.25L215 77.75Q215 82.25 215.5 85.75Q216 89.5 218.75 90.25Q219.5 91 220.75 91.5ZM328.75 90.25Q331.25 91.5 334 91.5Q336.25 91.5 340.75 90.25Q341.75 90.25 342 89.5Q343.5 90 344.25 90Q346.75 90 347.25 89.75Q348.25 89.5 349.25 88.5Q350 88 349.5 86.75L349.5 59.75Q349.5 54 349.25 52.5Q349.5 50.25 347 49.75Q346.25 48.25 343.5 48.25Q342.75 48.25 342.25 48.5Q340.25 48.75 339.5 49.5Q338.5 50 338.5 64L338.25 64L334.5 64.25Q333.25 64.25 332.75 64.75L332.5 65.25Q330.25 64 328.75 64Q327.5 64 326 64.75Q324.75 65.25 324.75 66.25Q324.25 71.25 324.25 77Q324.25 85.5 325.5 87.75Q325.75 88.5 326.75 89L327.75 89.5L328.75 90.25ZM170.065 90.3272Q170.372 90.3784 170.75 90L174 90.75Q179.75 91 183.5 90.25Q184.75 89.75 184.75 88.75Q185.25 84.75 184.5 83.25Q183.75 82.25 182.75 82.25L182.5 82.25L182.5 82Q181.75 81 180.75 81L177 81L177 80.5L177.25 71.75L182.25 71.5Q183.75 71.5 183.75 70Q184.25 66.5 183.25 64.5Q182.5 63.5 181.5 63.5L181.25 63.5L181.25 63.25Q180.5 62.25 179.5 62.25L177.25 62.25L177.75 52.5Q177.75 50.75 175.5 50.5Q175 49 171.75 49Q167.5 49 167.5 51L166.75 62.5L164 62.75Q162.75 62.75 162.25 64L162 65.5Q161.75 66 161.75 67Q161.75 67.5 162.25 69.5Q162.5 70.75 164 70.75Q164.75 72 166 72L166.75 72Q166.25 79.25 166.75 83.75Q166.75 89 168.25 89L168.75 88.75L169.25 89Q169.561 90.2432 170.065 90.3272ZM156 52.5Q156 55 155.5 55.5L150 55.5Q149.5 55 149.5 52.75Q149.5 50.25 150 49.75L155.5 49.5Q156 50 156 52.5ZM87 87L83.25 87.25L81 87L71.5 52Q72.75 50 76 50L77 50L84 78L90.5 50.25L95 50.25L101.5 78.25L109.5 49.75Q112.5 49.25 114.75 52L104.25 87L102 87.25L98.25 87L92.75 62.25L87 87ZM126.5 87Q126 87.25 124 87.25Q123 87.25 122 86.5L121.75 63Q121.75 51 122.25 50.5L125.25 49.75Q127.5 49.75 127.75 50.5Q128 50.75 128 67L128 79.75Q128 85.25 128.25 86.25Q127.75 86.75 126.5 87ZM228.5 88Q225.75 89 222 89Q219.5 89 219.25 88.75Q217.5 88.5 217 85.5Q216.5 82 216.5 77.75L216.75 50.25Q217.25 49.75 218.75 49.75Q222 49.75 222.25 50.75L222.25 62.75Q222 66.5 222 72L222 78.75Q222 82 222.75 83.25Q222.75 83.5 223.75 83.5Q225.5 83.5 225.75 83.25L227.75 82.75Q228.75 83.75 228.75 86Q228.75 87.25 228.5 88ZM344.75 87Q344.25 87.25 342.25 87.25Q341.5 87.25 340.25 86.5L340.25 78Q340.25 73 340 70.75L339 70.75Q337.75 71 336 71L334.25 71Q333.25 70.75 333.25 68.25Q333.25 66.5 334 65.75L338.25 65.5L340 65.5Q340 51 340.5 50.5L343.25 49.75Q345.5 49.75 345.75 50.5Q346 50.75 346 67L346 79.75Q346 85.25 346.25 86.25L344.75 87ZM175.5 88Q171.25 88 168.75 87.75Q168.25 87.25 168.25 83.75L168 77.25L168.25 69L163.75 69.25Q163.25 67.75 163.25 67Q163.25 66.25 163.5 65.75L163.75 64.25L168.25 64L169 51Q169 50.5 171.75 50.5Q174.25 50.5 174.25 51.25L173.75 64L179.75 63.75Q180.5 65.25 180.5 66.75L180.25 68.75L173.75 69L173.5 78.25L173.75 82.25Q174.75 82.5 176.25 82.5L181 82.5Q181.5 83.5 181.5 85L181.25 87.5Q179.75 88 175.5 88ZM151.5 89.75Q152.75 90.5 154 90.5Q156.25 90.5 157 90.25Q158.25 90 159.25 89Q160 88.5 159.5 87.25L159.5 76Q159.5 69 159.25 67.25Q159.25 65.5 157 65Q156.25 63.5 153 63.5Q150.5 63.75 149.5 64.5Q148.25 65 148.25 73.25Q148.25 78.75 148.5 82.25Q148.5 87.75 149.5 88.5Q150.5 89 151 89L151.5 89.75ZM193 91.5Q193.75 91.75 196.25 91.75Q199.25 91.75 201.75 91.5L210.75 90.75Q211.75 90.75 212.25 89.5Q212.5 88.75 212.5 87.25Q212.5 84.75 210.75 83.25Q210.5 82.75 209.5 82.75L208.75 82Q208.25 81.25 207.625 81.5Q207 81.75 206.75 81.75Q206.798 81.726 206.795 81.7112Q206.77 81.572 202.25 82.25Q200.5 82.5 198.25 82.5L197.75 82.5L197.75 82.25L198.25 82.25L202.25 81.75L204.5 81.5Q206.5 81.5 207.25 81.25L209.375 81.25Q210.25 81.25 211.25 81Q212.25 80.75 212.5 79.75Q212.75 79.25 212.75 77.75L213 75.75L213 70L212.75 66.5Q212.75 65 211.25 65L210.75 65Q210.25 63.75 209.25 63.75Q207.5 63.5 204.25 63.5Q199.5 63.5 195.75 64.75L195.25 65Q194.25 64 190.75 64Q189.75 64 188.25 64.5Q187.75 64.75 187.25 65.5Q187 65.75 187 67L187 77Q187.25 84 187.75 86Q188.25 89.5 191 90.25Q192 91.25 193 91.5ZM274.25 91.25Q275 91.5 277.5 91.5Q279 91.5 281.5 91L285.5 90.25Q286.25 90.25 286.75 89.75Q288.25 90.25 289.75 90.25L290.5 90.25Q291.25 90.25 291.25 89.5L291.25 89.25L291.5 89.25L291.5 89.75Q291.5 90.5 293 90.5L296.5 90.25Q298.5 90.25 298.5 87.75L298.25 85.75L297.5 83Q297.25 82.25 296.5 82L295.5 81.75Q295.25 81 294.5 80.75L294.25 80.75L294.5 78L294.5 70.25Q294.75 68 294.375 66.375Q294 64.75 293 64.75Q292.5 64.75 292.25 65Q291.958 63.8321 291.325 63.602Q290.874 63.438 290.25 63.75Q288.75 63.5 286.25 63.5Q281.25 63.5 277.5 64.5L276.5 65Q275.5 64 272.25 64Q271 64 269.5 64.5Q269 64.75 268.5 65.5Q268.25 66 268.25 67L268.5 78.25Q268.5 82 269 85.5Q269.5 89.25 272.25 90Q273.25 91 274.25 91.25ZM247.5 91.25Q248.25 91.5 250.75 91.5Q254.25 91.5 257.25 90.75Q258 90.75 258.5 90.25Q259.5 90.75 261.5 90.75Q265.75 90.75 265.75 88.75L266.25 82.75Q266.5 81 266.5 77L266.5 70.5L266.25 67Q266.25 65.5 265 65.5L264.25 65.25Q263.75 64.25 263 64.25Q260.75 63.75 256.25 63.75L251 64.5Q250.25 64.5 249.75 65Q248.75 64 245.5 64Q244.75 64 243.25 64.5Q242.75 64.75 242.25 65.5Q242 65.75 242 67L241.75 75Q241.75 81 242.25 85.5Q242.75 89.25 245.5 90Q246.25 90.75 247.5 91.25ZM303.75 90.5Q305 91.25 306.25 91.25Q308.5 91.25 309.25 91Q310.5 90.75 311.5 89.75Q312.25 89.25 311.75 88L311.75 77L318.25 75L320.75 74.25Q322.25 73.75 322.25 71.25L322.25 69.75Q321.5 67 319.75 66.25L319.25 66Q318.25 65 317.75 65Q317 64.75 316 65L310.75 66.75Q310.5 66 309.25 66L309 65.75Q308.5 64.5 305.25 64.5Q302.75 64.75 301.75 65.5Q300.5 66 300.5 73.5L300.75 87.25Q300.75 88.5 301.75 89.25Q302.75 89.75 303 89.75L303.75 90.5ZM141.75 86.75Q141.75 87.25 139 87.25Q136.5 87.25 136.5 86.5Q137.25 71.5 137 70.5Q134.5 70.5 133.75 70.75Q133 71 130 71Q129.25 69.5 129.25 67.25L129.25 65.75Q133.75 64.25 142 64.75Q142.5 65.25 142.5 68.75Q142.5 79.25 141.75 86.75ZM235.5 87.5Q235.5 88 232.75 88Q230.25 88 230.25 87.25L230.75 80.75Q231 77.75 231 73.75Q231 70.75 230.75 70.25Q228 70.25 227.25 70.5Q225.25 71 224.5 70.5Q223.75 69.25 223.75 67.75L224 65.5L229.5 64.75Q233.5 64.75 235.75 65Q236.25 65.5 236.25 68.75L236.25 76.75Q236.25 80.5 236 81.5L235.5 87.5ZM205 78.5L200 79L195.5 79.5Q194.5 78.75 194.5 76.75Q194.25 74.75 195.25 74.5L199.75 74Q201.5 73.75 204 74.25Q204 72.75 204.25 72Q204.25 70.75 204 70L202.25 70Q200.75 70 200 70.25Q199.25 70.5 198.25 70.5L197.25 70.5Q196.5 69.25 196.5 67.5L196.5 66Q200.75 64.5 209 65Q209.5 65.5 209.5 68.75L209.5 74.5Q209.029 78.2679 209.002 78.2647Q209 78.2645 209 78.25Q209 78.5 206.25 78.5L205 78.5ZM294.641 87.471Q294.577 87.5 294.5 87.5L289.5 87.75Q289.25 87.75 289.25 87.5L287.75 87.5Q285.25 87.5 285.25 86.75L285.25 80.25Q285.5 77.5 285.5 73.75Q285.5 71 285.25 70.5Q283 70.5 282.25 70.75Q281.5 71 278.5 71Q277.75 69.5 277.75 67.5L277.75 66Q283 64.5 290.75 65Q291 65.25 291 67.25L291 76.75Q291 80.25 290.75 81L291 82.25L294 82Q294.25 82.25 294.75 84.75Q295.199 87.2175 294.641 87.471ZM154.5 87.5Q154 87.75 152 87.75Q151.25 87.75 150 87L149.75 73.25Q149.75 66.25 150.25 65.75L153.25 65Q155.5 65 155.75 65.75Q156 66 156 74.75L156 82.25Q156 85.75 156.25 86.75Q155.75 87.25 154.5 87.5ZM262.25 87.5Q262.25 88 259.5 88Q257 88 257 87.25L257.5 78.25Q257.75 76.25 257.75 73.5Q257.75 71.25 257.5 70.75Q254.75 70.75 254 71Q252.25 71.25 251.5 71Q250.75 69.75 250.75 68.25L251 66L256.25 65.25Q260.25 65.25 262.5 65.5Q263 66 263 69.25L263 75.75Q263 79.75 262.75 81.5L262.25 87.5ZM199.5 88.75Q197.25 89 194.25 89Q191.75 89 191.5 88.75Q189.75 88.5 189.25 85.75Q189 84 188.5 77L188.5 66Q189 65.5 190.75 65.5Q194 65.5 194.25 66.25L194.25 78.5Q194.25 82.5 195 83.75Q195 84 196 84L198.25 84Q200.5 84 202.25 83.75Q206.75 83.5 208 83Q209 84 209 86Q209 87.25 208.75 88L199.5 88.75ZM255.25 88Q251.75 88.75 248.75 88.75Q246.25 88.75 246 88.5Q244.25 88.25 243.75 85.25Q243.25 81.75 243.25 75L243.5 66Q244 65.5 245.5 65.5Q248.75 65.5 249 66.5L249 70.75Q248.75 71.75 248.75 73.5L248.75 76Q248.75 81.75 249.5 83Q249.5 83.25 250.5 83.25Q252.25 83.25 252.5 83Q254 83 254.5 82.75Q255.5 83.75 255.5 86Q255.5 87.25 255.25 88ZM279.25 88.25Q276.75 88.75 275.5 88.75Q273 88.75 272.75 88.5Q271 88.25 270.5 85.25Q270 81.75 270 78.25L269.75 66Q270.25 65.5 272.25 65.5Q275.5 65.5 275.75 66.5L275.75 71Q275.5 72 275.5 74.25L275.5 78.5Q275.5 81.75 276.25 83Q276.25 83.25 277.25 83.25L280.25 82.75L282.75 82Q283.75 83 283.75 85.25Q283.75 86.75 283.5 87.5L279.25 88.25ZM338.75 87.5Q334.5 88.75 332 88.75Q329 88.75 327 87.5Q325.75 85.5 325.75 77Q325.75 69.75 326.25 66.25Q327.75 65.5 328.75 65.5Q329.75 65.5 332 66.25Q331.75 66.5 331.75 68.75Q331.75 72.25 331.5 74.75Q331 82 332 83.25L338.25 82.5Q339 84.75 339 86.25Q339 87.25 338.75 87.5ZM306.75 88.25Q306.25 88.5 304.25 88.5Q303.25 88.5 302.25 87.75L302 74.25Q302 67.25 302.5 66.75L305.5 66Q307.75 66 308 66.75L308 67.5Q308 68 308.25 68.25L308.25 69L317 66.25Q318.25 66.5 318.75 68.75Q319 71.25 318.25 71.5L308.25 74.5L308.25 83Q308.25 86.5 308.5 87.5Q308 88 306.75 88.25ZM197.75 72L198 72.5L197.75 72.75L197.75 72ZM227.75 73.5L229.5 73.25L229.25 80.75L229.25 82.25L229 82Q228.25 81 227 81.5L226.25 81.5Q226 81.75 225.5 81.75L225.5 72.75Q226.25 73.5 227.75 73.5ZM280 81.25L279.25 81.5L279 81.5L279 73.25L279.25 73Q279.75 73.75 281 73.75Q283.25 73.75 284 73.5L283.75 80.25L283.75 81Q283 80.25 282 80.75L280 81.25ZM254.5 74L256.25 73.75L256 78.25L255.75 82L255 81.25Q254.5 81 253.875 81.25Q253.25 81.5 253 81.5L252.5 81.5L252.25 77.25L252.25 73.25Q253 74 254.5 74ZM338.75 81L338 81L335 81.5L335 76L335.25 73.5Q335.75 73.75 337 73.75L338.75 73.75L338.75 81Z" fill="#FFFFFF"/>
  <defs>
    <filter id="filter_3_11_dd" x="170.000000" y="380.000000" width="0.000000" height="0.000000" filterUnits="userSpaceOnUse" color-interpolation-filters="sRGB">
      <feFlood flood-opacity="0" result="BackgroundImageFix"/>
      <feColorMatrix in="SourceAlpha" type="matrix" values="0 0 0 0 0 0 0 0 0 0 0 0 0 0 0 0 0 0 127 0"/>
      <feOffset dx="0" dy="4"/>
      <feGaussianBlur stdDeviation="1.33333"/>
      <feColorMatrix type="matrix" values="0 0 0 0 0 0 0 0 0 0 0 0 0 0 0 0 0 0 0.25 0"/>
      <feBlend mode="normal" in2="BackgroundImageFix" result="effect_dropShadow_1"/>
      <feBlend mode="normal" in="SourceGraphic" in2="effect_dropShadow_1" result="shape"/>
    </filter>
    <linearGradient id="paint_linear_3_5_0" x1="210.000000" y1="0.000000" x2="210.000000" y2="300.000000" gradientUnits="userSpaceOnUse">
      <stop offset="0.061069" stop-color="#34A2DA"/>
      <stop offset="1.000000" stop-color="#C4C4C4" stop-opacity="0.000000"/>
    </linearGradient>
    <linearGradient id="paint_linear_3_11_0" x1="210.500626" y1="24.000175" x2="88.000015" y2="200.000031" gradientUnits="userSpaceOnUse">
      <stop stop-color="#34A2DA"/>
      <stop offset="1.000000" stop-color="#E5E5E5"/>
    </linearGradient>
  </defs>
</svg>
