<svg width="420.000000" height="800.000061" viewBox="0 0 420 800" fill="none" xmlns="http://www.w3.org/2000/svg" xmlns:xlink="http://www.w3.org/1999/xlink">
  <desc>
    Created with Pixso.
  </desc>
  <rect width="420.000000" height="800.000061" fill="#FFFFFF"/>
  <rect width="420.000000" height="800.000061" fill="url(#paint_linear_1_13_0)"/>
  <path d="M214.271 213.129C214.271 217.223 212.958 219.207 210.849 219.207C208.72 219.207 207.408 217.223 207.408 213.129C207.408 209.078 208.72 207.129 210.849 207.129C212.958 207.129 214.271 209.078 214.271 213.129ZM226.831 213.129C226.831 217.223 225.518 219.207 223.409 219.207C221.28 219.207 219.968 217.223 219.968 213.129C219.968 209.078 221.28 207.129 223.409 207.129C225.518 207.129 226.831 209.078 226.831 213.129ZM201.488 219L195.473 219L195.473 218.184L198.113 218.184L198.113 208.695L196.078 208.695L196.078 208.07C197.023 207.91 197.742 207.656 198.305 207.336L199.055 207.336L199.055 218.184L201.488 218.184L201.488 219ZM208.337 213.129C208.337 216.664 209.33 218.426 210.849 218.426C212.353 218.426 213.345 216.664 213.345 213.129C213.345 209.656 212.353 207.91 210.849 207.91C209.33 207.91 208.337 209.656 208.337 213.129ZM220.897 213.129C220.897 216.664 221.89 218.426 223.409 218.426C224.913 218.426 225.905 216.664 225.905 213.129C225.905 209.656 224.913 207.91 223.409 207.91C221.89 207.91 220.897 209.656 220.897 213.129ZM205.376 218.344C205.376 218.871 204.994 219.207 204.56 219.207C204.126 219.207 203.744 218.871 203.744 218.344C203.744 217.801 204.126 217.465 204.56 217.465C204.994 217.465 205.376 217.801 205.376 218.344ZM217.936 218.344C217.936 218.871 217.554 219.207 217.12 219.207C216.686 219.207 216.304 218.871 216.304 218.344C216.304 217.801 216.686 217.465 217.12 217.465C217.554 217.465 217.936 217.801 217.936 218.344Z" fill="#FFFFFF"/>
  <path d="M208.231 695L207.87 695L207.87 687.061L208.231 687.061L208.231 690.591C208.79 690.02 209.339 689.6 210.069 689.6C211.151 689.6 211.659 690.249 211.659 691.609L211.659 695L211.3 695L211.3 691.66C211.3 690.5 210.929 689.929 210.03 689.929C209.381 689.929 208.9 690.281 208.231 690.969L208.231 695ZM178.75 694.099C178.2 694.741 177.561 695.129 176.621 695.129C174.831 695.129 173.62 693.64 173.62 691.35C173.62 689.06 174.841 687.61 176.679 687.61C177.519 687.61 178.161 688.03 178.53 688.469L178.3 688.721C177.91 688.269 177.36 687.959 176.679 687.959C175.019 687.959 174.011 689.27 174.011 691.35C174.011 693.43 175.019 694.78 176.64 694.78C177.399 694.78 177.971 694.47 178.52 693.86L178.75 694.099ZM229.469 695L225.219 695L225.219 694.771C227.799 692.561 228.73 691.021 228.73 689.651C228.73 688.711 228.251 687.939 227.14 687.939C226.491 687.939 225.89 688.32 225.451 688.87L225.199 688.64C225.71 688.069 226.32 687.61 227.17 687.61C228.4 687.61 229.111 688.42 229.111 689.651C229.111 691.24 227.919 692.781 225.82 694.719C226.22 694.69 226.62 694.67 227.011 694.67L229.469 694.67L229.469 695ZM234.631 691.35C234.631 693.911 233.849 695.129 232.58 695.129C231.291 695.129 230.519 693.911 230.519 691.35C230.519 688.821 231.291 687.61 232.58 687.61C233.849 687.61 234.631 688.821 234.631 691.35ZM239.889 695L235.639 695L235.639 694.771C238.219 692.561 239.15 691.021 239.15 689.651C239.15 688.711 238.671 687.939 237.56 687.939C236.911 687.939 236.31 688.32 235.871 688.87L235.619 688.64C236.13 688.069 236.74 687.61 237.59 687.61C238.82 687.61 239.531 688.42 239.531 689.651C239.531 691.24 238.339 692.781 236.24 694.719C236.64 694.69 237.04 694.67 237.431 694.67L239.889 694.67L239.889 695ZM245.099 695L240.849 695L240.849 694.771C243.429 692.561 244.36 691.021 244.36 689.651C244.36 688.711 243.881 687.939 242.77 687.939C242.121 687.939 241.52 688.32 241.081 688.87L240.829 688.64C241.34 688.069 241.95 687.61 242.8 687.61C244.03 687.61 244.741 688.42 244.741 689.651C244.741 691.24 243.549 692.781 241.449 694.719C241.85 694.69 242.25 694.67 242.641 694.67L245.099 694.67L245.099 695ZM200.701 688.02C200.701 688.25 200.51 688.401 200.31 688.401C200.1 688.401 199.929 688.25 199.929 688.02C199.929 687.771 200.1 687.629 200.31 687.629C200.51 687.629 200.701 687.771 200.701 688.02ZM230.89 691.35C230.89 693.579 231.55 694.8 232.58 694.8C233.6 694.8 234.259 693.579 234.259 691.35C234.259 689.15 233.6 687.93 232.58 687.93C231.55 687.93 230.89 689.15 230.89 691.35ZM222.179 695.979C221.55 696.37 220.871 696.57 220.119 696.57C218.01 696.57 216.479 695.161 216.479 692.781C216.479 689.929 218.52 688.081 220.79 688.081C222.88 688.081 224.189 689.451 224.189 691.521C224.189 693.369 223.1 694.36 222.221 694.36C221.64 694.36 221.22 694.099 221.181 693.53L221.159 693.53C220.761 693.94 220.319 694.299 219.809 694.299C219.15 694.299 218.571 693.811 218.571 692.82C218.571 691.78 219.311 690.371 220.61 690.371C221 690.371 221.31 690.549 221.53 690.901L221.55 690.901L221.64 690.459L221.94 690.459L221.559 692.49C221.301 693.54 221.54 694.041 222.241 694.041C222.951 694.041 223.84 693.14 223.84 691.55C223.84 689.609 222.641 688.401 220.761 688.401C218.74 688.401 216.821 690.12 216.821 692.759C216.821 694.89 218.151 696.24 220.141 696.24C220.89 696.24 221.491 696.021 222.011 695.701L222.179 695.979ZM215.8 694.929C215.49 695.039 215.16 695.129 214.98 695.129C214.001 695.129 213.739 694.519 213.739 693.601L213.739 690.061L212.9 690.061L212.9 689.78L213.739 689.729L213.781 688.191L214.091 688.191L214.091 689.729L215.651 689.729L215.651 690.061L214.091 690.061L214.091 693.65C214.091 694.331 214.24 694.8 215.009 694.8C215.209 694.8 215.49 694.719 215.68 694.629L215.8 694.929ZM184.461 692.38C184.461 694.121 183.379 695.129 182.12 695.129C180.86 695.129 179.781 694.121 179.781 692.38C179.781 690.61 180.86 689.6 182.12 689.6C183.379 689.6 184.461 690.61 184.461 692.38ZM186.461 697.429L186.1 697.429L186.1 689.729L186.4 689.729L186.461 690.41L186.481 690.41C187.001 690 187.631 689.6 188.29 689.6C189.72 689.6 190.409 690.659 190.409 692.29C190.409 694.08 189.33 695.129 188.07 695.129C187.57 695.129 187.02 694.89 186.461 694.47L186.461 697.429ZM197.091 695L196.73 695L196.73 689.729L197.03 689.729L197.091 690.72L197.111 690.72C197.46 690.081 197.97 689.6 198.6 689.6C198.781 689.6 198.929 689.619 199.11 689.709L199.02 690.039C198.849 689.971 198.761 689.951 198.551 689.951C198.08 689.951 197.499 690.32 197.091 691.36L197.091 695ZM206.701 695.801C206.701 696.689 205.751 697.571 204.269 697.571C202.931 697.571 202.111 696.98 202.111 696.101C202.111 695.64 202.421 695.149 202.909 694.8L202.909 694.761C202.641 694.6 202.44 694.319 202.44 693.921C202.44 693.44 202.79 693.11 203.019 692.949L203.019 692.91C202.689 692.62 202.35 692.1 202.35 691.46C202.35 690.391 203.151 689.6 204.159 689.6C204.459 689.6 204.701 689.67 204.85 689.729L206.61 689.729L206.61 690.061L205.351 690.061C205.719 690.371 205.971 690.859 205.971 691.46C205.971 692.51 205.18 693.33 204.159 693.33C203.859 693.33 203.51 693.24 203.27 693.091C203.029 693.279 202.809 693.53 202.809 693.889C202.809 694.29 203.029 694.619 203.839 694.619L205.011 694.619C206.171 694.619 206.701 694.99 206.701 695.801ZM193.451 695.74C193.18 696.56 192.65 697.439 191.74 697.439C191.559 697.439 191.359 697.4 191.229 697.329L191.32 697C191.43 697.051 191.601 697.09 191.759 697.09C192.421 697.09 192.87 696.45 193.161 695.61L193.31 695.12L191.129 689.729L191.53 689.729L192.86 693.169C193.029 693.621 193.251 694.18 193.451 694.651L193.5 694.651C193.671 694.18 193.849 693.621 194 693.169L195.18 689.729L195.551 689.729L193.451 695.74ZM200.481 695L200.12 695L200.12 689.729L200.481 689.729L200.481 695ZM180.159 692.38C180.159 693.821 180.999 694.8 182.12 694.8C183.24 694.8 184.09 693.821 184.09 692.38C184.09 690.93 183.24 689.929 182.12 689.929C180.999 689.929 180.159 690.93 180.159 692.38ZM188.26 689.929C187.721 689.929 187.13 690.259 186.461 690.84L186.461 694.089C187.079 694.609 187.679 694.8 188.099 694.8C189.22 694.8 190.03 693.76 190.03 692.29C190.03 690.95 189.549 689.929 188.26 689.929ZM202.731 691.46C202.731 692.371 203.4 693 204.159 693C204.931 693 205.6 692.371 205.6 691.46C205.6 690.52 204.95 689.929 204.159 689.929C203.38 689.929 202.731 690.51 202.731 691.46ZM218.92 692.8C218.92 693.669 219.34 693.979 219.85 693.979C220.209 693.979 220.629 693.74 221.091 693.21L221.44 691.26C221.159 690.83 220.939 690.701 220.58 690.701C219.56 690.701 218.92 691.831 218.92 692.8ZM202.489 696.069C202.489 696.77 203.141 697.251 204.291 697.251C205.551 697.251 206.33 696.531 206.33 695.84C206.33 695.22 205.89 694.98 205.06 694.98L203.859 694.98C203.79 694.98 203.51 694.961 203.219 694.89C202.699 695.239 202.489 695.681 202.489 696.069Z" fill="#000000" fill-opacity="0.900000"/>
  <path d="M164.45 680.09C164.359 680.11 164.301 680.129 164.149 680.129C163.81 680.129 163.61 679.919 163.61 679.409L163.61 672.061L163.971 672.061L163.971 679.47C163.971 679.69 164.049 679.8 164.191 679.8C164.23 679.8 164.269 679.8 164.379 679.78L164.45 680.09ZM244.66 680.09C244.569 680.11 244.511 680.129 244.359 680.129C244.02 680.129 243.82 679.919 243.82 679.409L243.82 672.061L244.181 672.061L244.181 679.47C244.181 679.69 244.259 679.8 244.401 679.8C244.44 679.8 244.479 679.8 244.589 679.78L244.66 680.09ZM258.441 680L258.08 680L258.08 672.061L258.441 672.061L258.441 678.059L258.461 678.059L261.17 674.729L261.59 674.729L259.889 676.809L261.891 680L261.5 680L259.679 677.08L258.441 678.55L258.441 680ZM181.979 680L177.729 680L177.729 679.771C180.309 677.561 181.24 676.021 181.24 674.651C181.24 673.711 180.761 672.939 179.65 672.939C179.001 672.939 178.4 673.32 177.961 673.87L177.709 673.64C178.22 673.069 178.83 672.61 179.68 672.61C180.91 672.61 181.621 673.42 181.621 674.651C181.621 676.24 180.429 677.781 178.33 679.719C178.73 679.69 179.13 679.67 179.521 679.67L181.979 679.67L181.979 680ZM185.649 672.61C186.269 672.61 186.721 672.871 187.08 673.269L186.84 673.521C186.53 673.13 186.101 672.939 185.639 672.939C184.479 672.939 183.491 673.85 183.471 676.541C183.969 675.93 184.609 675.559 185.28 675.559C186.52 675.559 187.231 676.35 187.231 677.839C187.231 679.16 186.359 680.129 185.351 680.129C183.94 680.129 183.1 678.84 183.1 676.609C183.1 673.621 184.311 672.61 185.649 672.61ZM202.771 676.35C202.771 678.911 201.989 680.129 200.72 680.129C199.431 680.129 198.659 678.911 198.659 676.35C198.659 673.821 199.431 672.61 200.72 672.61C201.989 672.61 202.771 673.821 202.771 676.35ZM208.029 680L203.779 680L203.779 679.771C206.359 677.561 207.29 676.021 207.29 674.651C207.29 673.711 206.811 672.939 205.7 672.939C205.051 672.939 204.45 673.32 204.011 673.87L203.759 673.64C204.27 673.069 204.88 672.61 205.73 672.61C206.96 672.61 207.67 673.42 207.67 674.651C207.67 676.24 206.479 677.781 204.379 679.719C204.78 679.69 205.18 679.67 205.571 679.67L208.029 679.67L208.029 680ZM218.449 680L214.199 680L214.199 679.771C216.779 677.561 217.71 676.021 217.71 674.651C217.71 673.711 217.231 672.939 216.12 672.939C215.471 672.939 214.87 673.32 214.431 673.87L214.179 673.64C214.69 673.069 215.3 672.61 216.15 672.61C217.38 672.61 218.09 673.42 218.09 674.651C218.09 676.24 216.899 677.781 214.799 679.719C215.2 679.69 215.6 679.67 215.991 679.67L218.449 679.67L218.449 680ZM161.741 673.02C161.741 673.25 161.55 673.401 161.35 673.401C161.14 673.401 160.969 673.25 160.969 673.02C160.969 672.771 161.14 672.629 161.35 672.629C161.55 672.629 161.741 672.771 161.741 673.02ZM171.241 673.02C171.241 673.25 171.05 673.401 170.85 673.401C170.64 673.401 170.469 673.25 170.469 673.02C170.469 672.771 170.64 672.629 170.85 672.629C171.05 672.629 171.241 672.771 171.241 673.02ZM197.651 678.311C197.651 679.319 196.799 680.129 195.549 680.129C194.26 680.129 193.339 679.299 193.339 678.201C193.339 677.18 194.111 676.44 194.77 676.079L194.77 676.04C194.26 675.71 193.759 675.171 193.759 674.409C193.759 673.379 194.55 672.649 195.549 672.649C196.74 672.649 197.419 673.469 197.419 674.541C197.419 675.349 196.811 676.05 196.42 676.379L196.42 676.431C197.021 676.799 197.651 677.319 197.651 678.311ZM142.11 680L138.101 680L138.101 672.739L142 672.739L142 673.069L138.47 673.069L138.47 675.959L141.431 675.959L141.431 676.289L138.47 676.289L138.47 679.67L142.11 679.67L142.11 680ZM176.74 677.69C176.74 679.25 175.629 680.129 174.531 680.129C173.41 680.129 172.79 679.629 172.35 679.189L172.58 678.921C172.99 679.36 173.539 679.8 174.55 679.8C175.51 679.8 176.359 678.96 176.359 677.71C176.359 676.47 175.661 675.701 174.57 675.701C174.03 675.701 173.649 675.901 173.239 676.179L172.939 676.001L173.2 672.739L176.369 672.739L176.369 673.069L173.53 673.069L173.29 675.74C173.659 675.51 174.059 675.359 174.599 675.359C175.79 675.359 176.74 676.069 176.74 677.69ZM192.219 680L188.64 680L188.64 679.67L190.31 679.67L190.31 673.42L189.04 673.42L189.04 673.159C189.599 673.069 190.041 672.92 190.351 672.739L190.661 672.739L190.661 679.67L192.219 679.67L192.219 680ZM213.059 680L209.48 680L209.48 679.67L211.15 679.67L211.15 673.42L209.88 673.42L209.88 673.159C210.439 673.069 210.881 672.92 211.191 672.739L211.501 672.739L211.501 679.67L213.059 679.67L213.059 680ZM199.03 676.35C199.03 678.579 199.689 679.8 200.72 679.8C201.74 679.8 202.399 678.579 202.399 676.35C202.399 674.15 201.74 672.93 200.72 672.93C199.689 672.93 199.03 674.15 199.03 676.35ZM194.13 674.409C194.13 675.471 195.129 675.901 196.081 676.27C196.711 675.769 197.06 675.19 197.06 674.541C197.06 673.701 196.511 672.971 195.549 672.971C194.709 672.971 194.13 673.589 194.13 674.409ZM225.219 680.979C224.59 681.37 223.911 681.57 223.159 681.57C221.049 681.57 219.519 680.161 219.519 677.781C219.519 674.929 221.56 673.081 223.83 673.081C225.92 673.081 227.229 674.451 227.229 676.521C227.229 678.369 226.14 679.36 225.261 679.36C224.68 679.36 224.26 679.099 224.221 678.53L224.199 678.53C223.801 678.94 223.359 679.299 222.849 679.299C222.19 679.299 221.611 678.811 221.611 677.82C221.611 676.78 222.351 675.371 223.65 675.371C224.04 675.371 224.35 675.549 224.57 675.901L224.59 675.901L224.68 675.459L224.98 675.459L224.599 677.49C224.34 678.54 224.58 679.041 225.28 679.041C225.991 679.041 226.88 678.14 226.88 676.55C226.88 674.609 225.681 673.401 223.801 673.401C221.779 673.401 219.861 675.12 219.861 677.759C219.861 679.89 221.191 681.24 223.181 681.24C223.93 681.24 224.531 681.021 225.051 680.701L225.219 680.979ZM242.66 679.929C242.35 680.039 242.02 680.129 241.84 680.129C240.861 680.129 240.599 679.519 240.599 678.601L240.599 675.061L239.759 675.061L239.759 674.78L240.599 674.729L240.641 673.191L240.951 673.191L240.951 674.729L242.511 674.729L242.511 675.061L240.951 675.061L240.951 678.65C240.951 679.331 241.1 679.8 241.869 679.8C242.069 679.8 242.35 679.719 242.54 679.629L242.66 679.929ZM147.271 680L146.91 680L146.91 674.729L147.21 674.729L147.271 675.569L147.291 675.569C147.769 675.02 148.38 674.6 148.961 674.6C149.82 674.6 150.24 675.039 150.411 675.701C151.031 675.02 151.619 674.6 152.22 674.6C153.25 674.6 153.78 675.249 153.78 676.609L153.78 680L153.431 680L153.431 676.66C153.431 675.5 153.03 674.929 152.181 674.929C151.661 674.929 151.141 675.281 150.521 675.969L150.521 680L150.169 680L150.169 676.66C150.169 675.5 149.781 674.929 148.929 674.929C148.421 674.929 147.869 675.281 147.271 675.969L147.271 680ZM158.83 679.299C158.29 679.741 157.631 680.129 156.93 680.129C156.11 680.129 155.409 679.7 155.409 678.701C155.409 677.529 156.481 676.98 158.849 676.709C158.881 675.859 158.661 674.929 157.57 674.929C156.82 674.929 156.19 675.3 155.851 675.569L155.67 675.281C156 675.039 156.73 674.6 157.589 674.6C158.83 674.6 159.21 675.52 159.21 676.589L159.21 680L158.91 680L158.859 679.299L158.83 679.299ZM233.071 677.38C233.071 679.121 231.989 680.129 230.73 680.129C229.47 680.129 228.391 679.121 228.391 677.38C228.391 675.61 229.47 674.6 230.73 674.6C231.989 674.6 233.071 675.61 233.071 677.38ZM250.581 677.38C250.581 679.121 249.499 680.129 248.24 680.129C246.98 680.129 245.901 679.121 245.901 677.38C245.901 675.61 246.98 674.6 248.24 674.6C249.499 674.6 250.581 675.61 250.581 677.38ZM256.441 677.38C256.441 679.121 255.359 680.129 254.1 680.129C252.84 680.129 251.761 679.121 251.761 677.38C251.761 675.61 252.84 674.6 254.1 674.6C255.359 674.6 256.441 675.61 256.441 677.38ZM269.049 679.431C268.609 679.819 268.05 680.129 267.369 680.129C266.029 680.129 265.011 679.121 265.011 677.38C265.011 675.61 266.109 674.6 267.379 674.6C268.099 674.6 268.57 674.929 268.919 675.259L268.69 675.52C268.341 675.19 267.921 674.929 267.379 674.929C266.27 674.929 265.389 675.93 265.389 677.38C265.389 678.821 266.18 679.8 267.379 679.8C267.96 679.8 268.47 679.519 268.839 679.17L269.049 679.431ZM274.431 677.38C274.431 679.121 273.349 680.129 272.09 680.129C270.83 680.129 269.751 679.121 269.751 677.38C269.751 675.61 270.83 674.6 272.09 674.6C273.349 674.6 274.431 675.61 274.431 677.38ZM276.431 680L276.07 680L276.07 674.729L276.37 674.729L276.431 675.569L276.451 675.569C276.929 675.02 277.539 674.6 278.12 674.6C278.98 674.6 279.4 675.039 279.571 675.701C280.191 675.02 280.779 674.6 281.38 674.6C282.41 674.6 282.94 675.249 282.94 676.609L282.94 680L282.591 680L282.591 676.66C282.591 675.5 282.19 674.929 281.341 674.929C280.821 674.929 280.301 675.281 279.68 675.969L279.68 680L279.329 680L279.329 676.66C279.329 675.5 278.941 674.929 278.089 674.929C277.581 674.929 277.029 675.281 276.431 675.969L276.431 680ZM161.521 680L161.16 680L161.16 674.729L161.521 674.729L161.521 680ZM171.021 681.101C171.021 682.109 170.66 682.561 169.92 682.561C169.7 682.561 169.429 682.5 169.28 682.429L169.371 682.141C169.5 682.18 169.72 682.251 169.94 682.251C170.55 682.251 170.66 681.741 170.66 681.06L170.66 674.729L171.021 674.729L171.021 681.101ZM238.02 679.099C237.49 679.709 236.939 680.129 236.209 680.129C235.13 680.129 234.619 679.49 234.619 678.12L234.619 674.729L234.981 674.729L234.981 678.081C234.981 679.241 235.349 679.8 236.24 679.8C236.89 679.8 237.381 679.451 238.03 678.669L238.03 674.729L238.389 674.729L238.389 680L238.079 680L238.04 679.099L238.02 679.099ZM228.769 677.38C228.769 678.821 229.609 679.8 230.73 679.8C231.85 679.8 232.7 678.821 232.7 677.38C232.7 675.93 231.85 674.929 230.73 674.929C229.609 674.929 228.769 675.93 228.769 677.38ZM246.279 677.38C246.279 678.821 247.119 679.8 248.24 679.8C249.36 679.8 250.21 678.821 250.21 677.38C250.21 675.93 249.36 674.929 248.24 674.929C247.119 674.929 246.279 675.93 246.279 677.38ZM252.139 677.38C252.139 678.821 252.979 679.8 254.1 679.8C255.22 679.8 256.07 678.821 256.07 677.38C256.07 675.93 255.22 674.929 254.1 674.929C252.979 674.929 252.139 675.93 252.139 677.38ZM270.129 677.38C270.129 678.821 270.969 679.8 272.09 679.8C273.21 679.8 274.06 678.821 274.06 677.38C274.06 675.93 273.21 674.929 272.09 674.929C270.969 674.929 270.129 675.93 270.129 677.38ZM166.66 675.42C166.66 675.701 166.46 675.85 166.25 675.85C166.05 675.85 165.849 675.701 165.849 675.42C165.849 675.129 166.05 674.971 166.25 674.971C166.46 674.971 166.66 675.129 166.66 675.42ZM221.96 677.8C221.96 678.669 222.38 678.979 222.89 678.979C223.249 678.979 223.669 678.74 224.131 678.21L224.48 676.26C224.199 675.83 223.979 675.701 223.62 675.701C222.6 675.701 221.96 676.831 221.96 677.8ZM183.481 676.97C183.549 678.621 184.13 679.8 185.371 679.8C186.22 679.8 186.85 678.931 186.85 677.839C186.85 676.731 186.401 675.869 185.261 675.869C184.75 675.869 184.069 676.179 183.481 676.97ZM193.71 678.201C193.71 679.089 194.48 679.8 195.549 679.8C196.601 679.8 197.27 679.131 197.27 678.311C197.27 677.109 196.159 676.689 195.041 676.25C194.26 676.689 193.71 677.351 193.71 678.201ZM155.78 678.689C155.78 679.5 156.32 679.8 156.959 679.8C157.589 679.8 158.161 679.5 158.849 678.911L158.849 677.019C156.559 677.271 155.78 677.8 155.78 678.689ZM145.45 677.439L143.059 677.439L143.059 677.09L145.45 677.09L145.45 677.439ZM166.66 679.7C166.66 679.971 166.46 680.129 166.25 680.129C166.05 680.129 165.849 679.971 165.849 679.7C165.849 679.409 166.05 679.25 166.25 679.25C166.46 679.25 166.66 679.409 166.66 679.7ZM263.8 679.7C263.8 679.971 263.6 680.129 263.39 680.129C263.19 680.129 262.989 679.971 262.989 679.7C262.989 679.409 263.19 679.25 263.39 679.25C263.6 679.25 263.8 679.409 263.8 679.7Z" fill="#000000" fill-opacity="0.900000"/>
  <path d="M164.945 250.465Q165.121 250.527 165.199 250.734L165.199 245.664L154.32 245.664L154.625 245.984L154.625 253.055L156.703 253.055L156.703 250.398L164.625 250.398Q164.77 250.398 164.945 250.465ZM233.201 245.68L233.486 246L233.486 248.273L224.4 248.273L224.654 248.594L224.654 253.07L235.584 253.07L235.584 245.68L233.201 245.68ZM244.225 245.68L244.529 246L244.529 253.07L255.15 253.07L255.15 248.273L246.623 248.273L246.623 245.68L244.225 245.68ZM163.121 249.297L156.703 249.297L156.703 246.785L163.121 246.785L163.121 249.297ZM186.4 247.457L183.65 247.457L184.142 247.855L182.529 251.887L180.56 247.457L178.048 247.457L178.591 247.855L181.103 253.07L183.361 253.07L185.025 248.992L186.927 253.07L189.169 253.07L191.49 247.457L190.048 247.457L188.353 251.809L186.4 247.457ZM257.168 256.191L259.214 256.191L265.648 247.457L263.503 247.457L261.281 250.527L258.8 247.457L255.793 247.457L256.562 247.84L260.128 252.098L257.168 256.191ZM165.84 248.258L166.145 248.574L166.145 253.055L177.407 253.055L177.407 248.258L165.84 248.258ZM202.624 253.137Q202.8 253.199 202.878 253.391L202.878 251.953L194.511 251.953L194.511 251.121L202.304 251.121Q202.449 251.121 202.624 251.176Q202.8 251.23 202.878 251.441L202.878 248.258L192.128 248.258L192.417 248.559L192.417 253.07L202.304 253.07Q202.449 253.07 202.624 253.137ZM203.52 248.258L203.825 248.574L203.825 253.07L205.903 253.07L205.903 250.688L211.794 249.602Q211.934 249.602 212.11 249.664Q212.29 249.727 212.368 249.922L212.368 248.258L205.903 249.551L205.903 248.258L203.52 248.258ZM223.505 253.137Q223.68 253.199 223.758 253.391L223.758 251.953L215.391 251.953L215.391 251.121L223.184 251.121Q223.329 251.121 223.505 251.176Q223.68 251.23 223.758 251.441L223.758 248.258L213.008 248.258L213.298 248.559L213.298 253.07L223.184 253.07Q223.329 253.07 223.505 253.137ZM200.8 250L194.511 250L194.511 249.359L200.8 249.359L200.8 250ZM221.68 250L215.391 250L215.391 249.359L221.68 249.359L221.68 250ZM168.223 251.953L168.223 249.375L175.329 249.375L175.329 251.953L168.223 251.953ZM233.486 251.969L226.736 251.969L226.736 249.375L233.486 249.375L233.486 251.969ZM246.623 251.969L246.623 249.375L253.072 249.375L253.072 251.969L246.623 251.969ZM192.968 264.785L197.16 264.785L197.16 271.055L199.242 271.055L199.242 264.785L202.968 264.785Q203.113 264.785 203.289 264.84Q203.464 264.895 203.543 265.105L203.543 263.664L193.464 263.664L192.968 263.391L192.968 264.785ZM178.745 264.785L178.745 271.055L180.824 271.055L180.824 263.664L169.96 263.664L170.249 263.984L170.249 271.055L172.327 271.055L172.327 264.785L178.745 264.785ZM191.761 267.984Q191.929 268.047 192.007 268.238L192.007 266.801L183.831 266.801L183.831 264.77L191.753 264.77Q191.898 264.77 192.081 264.832Q192.265 264.895 192.328 265.105L192.328 263.664L181.464 263.664L181.769 263.984L181.769 271.055L191.753 271.055Q191.898 271.055 192.081 271.121Q192.265 271.184 192.328 271.375L192.328 269.938L183.831 269.938L183.831 267.922L191.433 267.922Q191.593 267.922 191.761 267.984ZM238.872 263.664L239.161 263.984L239.161 271.07L249.177 271.07Q249.322 271.07 249.497 271.129Q249.673 271.184 249.751 271.375L249.751 263.664L247.368 263.664L247.658 263.984L247.658 269.938L241.255 269.938L241.255 263.664L238.872 263.664ZM214.262 271.055L216.122 265.297L217.942 271.055L220.122 271.055L221.942 265.344L223.751 271.055L225.192 271.055L222.743 263.68L220.122 263.68L220.407 264L218.712 269.023L216.934 263.68L214.262 263.68L214.552 264L212.184 271.055L214.262 271.055ZM236.168 271.055L238.231 271.055L234.551 263.68L229.114 263.68L229.414 264L225.832 271.055L227.895 271.055L229.239 268.336L234.84 268.336L236.168 271.055ZM250.392 263.68L250.681 264L250.681 271.055L252.775 271.055L252.775 263.68L250.392 263.68ZM234.282 267.215L229.785 267.215L231 264.785L233.098 264.785L234.282 267.215ZM169.318 269.344L167.224 269.344L167.224 271.055L169.318 271.055L169.318 269.344Z" fill="#F3E6FF"/>
  <path d="M151.5 136Q151.75 136.25 153 136.25L156.5 136.25Q157.75 136.25 158 136Q158.75 135.5 159 135Q159.5 133.5 159.5 131.75Q159.5 130 159 128.5Q158.75 128 158 127.5L157 127.25Q156.75 126.75 156 126.25Q155.5 126 154.5 126L151 126.25Q149.75 126.25 149.5 126.5Q148.75 127 148.5 127.5Q148 129 148 130.75Q148 132.25 148.5 133.75Q148.75 134.25 149.5 134.75L150.5 135Q150.75 135.5 151.5 136ZM85.25 168Q87.5 168 88.75 167.75Q90 167.75 90.5 166.5L93.75 152L96.75 165.25Q97.25 166.5 98.5 166.5L98.75 166.5Q99.25 167.75 100.5 167.75Q101.75 168 104 168Q106.25 168 107.25 167.5L107.75 166.25L118 132Q118.25 131 117.75 130Q116 128.25 114.75 128Q113 126.25 110.25 126.25L109.5 126.25Q108.5 126.25 108 127.5L102.5 147L98.5 129.25Q98 128 96.75 128L96.5 128Q96 126.75 94.75 126.75L90.75 126.75Q89.5 126.75 89 128L84.75 146.25L80.5 129.25Q80.25 127.75 79 127.75L78.5 127.75Q78 126.5 77 126.5Q72.75 126 70.5 128.75Q70 129.75 70.25 130.75L79.5 165Q80 166.25 80.75 166.5L81.5 166.5Q81.75 167.5 82.75 167.75L85.25 168ZM123.5 167.25Q124.75 168 126 168Q128.25 168 129 167.75Q130.25 167.5 131.25 166.5Q132 166 131.5 164.75L131.5 151.5L132.5 151.75Q134.75 151.75 135.5 151.5L135 164.5Q135 166.25 137.25 166.5Q137.75 168 141 168Q145.25 168 145.25 166Q146 158.5 146 148Q146 144.75 145.5 143.75Q145.25 143.25 144.5 142.75L143.5 142.5Q143.25 142 142.5 141.5Q142.25 141.25 141 141.25Q136 141 131.5 141.75Q131.5 132.5 131.25 130.5Q131.5 128.25 129 127.75Q128.25 126.25 125 126.25Q122.5 126.5 121.5 127.25Q120.25 127.75 120.25 140L120.5 157.5Q120.5 165.25 121.5 166L123 166.75L123.5 167.25ZM220.75 169.5Q221.5 169.75 224 169.75Q228 169.75 230.75 168.75L231.75 168.25Q232.75 168.75 234.75 168.75Q239 168.75 239 166.75L239.5 161Q239.75 159.75 239.75 156L239.75 148L239.5 144.5Q239.5 143 238.25 143L237.5 142.75Q237 141.75 236.25 141.75Q234 141.25 229.5 141.25L225.75 141.75L225.75 130.75Q225.75 129.5 225.5 129Q225 128.25 223.5 127.75Q222.5 126.25 218.75 126.25Q218 126.25 216.5 126.75Q216 127 215.5 127.75Q215.25 128 215.25 129.25L215 155.75Q215 160.25 215.5 163.75Q216 167.5 218.75 168.25Q219.5 169 220.75 169.5ZM328.75 168.25Q331.25 169.5 334 169.5Q336.25 169.5 340.75 168.25Q341.75 168.25 342 167.5Q343.5 168 344.25 168Q346.75 168 347.25 167.75Q348.25 167.5 349.25 166.5Q350 166 349.5 164.75L349.5 137.75Q349.5 132 349.25 130.5Q349.5 128.25 347 127.75Q346.25 126.25 343.5 126.25Q342.75 126.25 342.25 126.5Q340.25 126.75 339.5 127.5Q338.5 128 338.5 142L338.25 142L334.5 142.25Q333.25 142.25 332.75 142.75L332.5 143.25Q330.25 142 328.75 142Q327.5 142 326 142.75Q324.75 143.25 324.75 144.25Q324.25 149.25 324.25 155Q324.25 163.5 325.5 165.75Q325.75 166.5 326.75 167L327.75 167.5L328.75 168.25ZM170.065 168.327Q170.372 168.378 170.75 168L174 168.75Q179.75 169 183.5 168.25Q184.75 167.75 184.75 166.75Q185.25 162.75 184.5 161.25Q183.75 160.25 182.75 160.25L182.5 160.25L182.5 160Q181.75 159 180.75 159L177 159L177 158.5L177.25 149.75L182.25 149.5Q183.75 149.5 183.75 148Q184.25 144.5 183.25 142.5Q182.5 141.5 181.5 141.5L181.25 141.5L181.25 141.25Q180.5 140.25 179.5 140.25L177.25 140.25L177.75 130.5Q177.75 128.75 175.5 128.5Q175 127 171.75 127Q167.5 127 167.5 129L166.75 140.5L164 140.75Q162.75 140.75 162.25 142L162 143.5Q161.75 144 161.75 145Q161.75 145.5 162.25 147.5Q162.5 148.75 164 148.75Q164.75 150 166 150L166.75 150Q166.25 157.25 166.75 161.75Q166.75 167 168.25 167L168.75 166.75L169.25 167Q169.561 168.243 170.065 168.327ZM156 130.5Q156 133 155.5 133.5L150 133.5Q149.5 133 149.5 130.75Q149.5 128.25 150 127.75L155.5 127.5Q156 128 156 130.5ZM87 165L83.25 165.25L81 165L71.5 130Q72.75 128 76 128L77 128L84 156L90.5 128.25L95 128.25L101.5 156.25L109.5 127.75Q112.5 127.25 114.75 130L104.25 165L102 165.25L98.25 165L92.75 140.25L87 165ZM126.5 165Q126 165.25 124 165.25Q123 165.25 122 164.5L121.75 141Q121.75 129 122.25 128.5L125.25 127.75Q127.5 127.75 127.75 128.5Q128 128.75 128 145L128 157.75Q128 163.25 128.25 164.25Q127.75 164.75 126.5 165ZM228.5 166Q225.75 167 222 167Q219.5 167 219.25 166.75Q217.5 166.5 217 163.5Q216.5 160 216.5 155.75L216.75 128.25Q217.25 127.75 218.75 127.75Q222 127.75 222.25 128.75L222.25 140.75Q222 144.5 222 150L222 156.75Q222 160 222.75 161.25Q222.75 161.5 223.75 161.5Q225.5 161.5 225.75 161.25L227.75 160.75Q228.75 161.75 228.75 164Q228.75 165.25 228.5 166ZM344.75 165Q344.25 165.25 342.25 165.25Q341.5 165.25 340.25 164.5L340.25 156Q340.25 151 340 148.75L339 148.75Q337.75 149 336 149L334.25 149Q333.25 148.75 333.25 146.25Q333.25 144.5 334 143.75L338.25 143.5L340 143.5Q340 129 340.5 128.5L343.25 127.75Q345.5 127.75 345.75 128.5Q346 128.75 346 145L346 157.75Q346 163.25 346.25 164.25L344.75 165ZM175.5 166Q171.25 166 168.75 165.75Q168.25 165.25 168.25 161.75L168 155.25L168.25 147L163.75 147.25Q163.25 145.75 163.25 145Q163.25 144.25 163.5 143.75L163.75 142.25L168.25 142L169 129Q169 128.5 171.75 128.5Q174.25 128.5 174.25 129.25L173.75 142L179.75 141.75Q180.5 143.25 180.5 144.75L180.25 146.75L173.75 147L173.5 156.25L173.75 160.25Q174.75 160.5 176.25 160.5L181 160.5Q181.5 161.5 181.5 163L181.25 165.5Q179.75 166 175.5 166ZM151.5 167.75Q152.75 168.5 154 168.5Q156.25 168.5 157 168.25Q158.25 168 159.25 167Q160 166.5 159.5 165.25L159.5 154Q159.5 147 159.25 145.25Q159.25 143.5 157 143Q156.25 141.5 153 141.5Q150.5 141.75 149.5 142.5Q148.25 143 148.25 151.25Q148.25 156.75 148.5 160.25Q148.5 165.75 149.5 166.5Q150.5 167 151 167L151.5 167.75ZM193 169.5Q193.75 169.75 196.25 169.75Q199.25 169.75 201.75 169.5L210.75 168.75Q211.75 168.75 212.25 167.5Q212.5 166.75 212.5 165.25Q212.5 162.75 210.75 161.25Q210.5 160.75 209.5 160.75L208.75 160Q208.25 159.25 207.625 159.5Q207 159.75 206.75 159.75Q206.798 159.726 206.795 159.711Q206.77 159.572 202.25 160.25Q200.5 160.5 198.25 160.5L197.75 160.5L197.75 160.25L198.25 160.25L202.25 159.75L204.5 159.5Q206.5 159.5 207.25 159.25L209.375 159.25Q210.25 159.25 211.25 159Q212.25 158.75 212.5 157.75Q212.75 157.25 212.75 155.75L213 153.75L213 148L212.75 144.5Q212.75 143 211.25 143L210.75 143Q210.25 141.75 209.25 141.75Q207.5 141.5 204.25 141.5Q199.5 141.5 195.75 142.75L195.25 143Q194.25 142 190.75 142Q189.75 142 188.25 142.5Q187.75 142.75 187.25 143.5Q187 143.75 187 145L187 155Q187.25 162 187.75 164Q188.25 167.5 191 168.25Q192 169.25 193 169.5ZM274.25 169.25Q275 169.5 277.5 169.5Q279 169.5 281.5 169L285.5 168.25Q286.25 168.25 286.75 167.75Q288.25 168.25 289.75 168.25L290.5 168.25Q291.25 168.25 291.25 167.5L291.25 167.25L291.5 167.25L291.5 167.75Q291.5 168.5 293 168.5L296.5 168.25Q298.5 168.25 298.5 165.75L298.25 163.75L297.5 161Q297.25 160.25 296.5 160L295.5 159.75Q295.25 159 294.5 158.75L294.25 158.75L294.5 156L294.5 148.25Q294.75 146 294.375 144.375Q294 142.75 293 142.75Q292.5 142.75 292.25 143Q291.958 141.832 291.325 141.602Q290.874 141.438 290.25 141.75Q288.75 141.5 286.25 141.5Q281.25 141.5 277.5 142.5L276.5 143Q275.5 142 272.25 142Q271 142 269.5 142.5Q269 142.75 268.5 143.5Q268.25 144 268.25 145L268.5 156.25Q268.5 160 269 163.5Q269.5 167.25 272.25 168Q273.25 169 274.25 169.25ZM247.5 169.25Q248.25 169.5 250.75 169.5Q254.25 169.5 257.25 168.75Q258 168.75 258.5 168.25Q259.5 168.75 261.5 168.75Q265.75 168.75 265.75 166.75L266.25 160.75Q266.5 159 266.5 155L266.5 148.5L266.25 145Q266.25 143.5 265 143.5L264.25 143.25Q263.75 142.25 263 142.25Q260.75 141.75 256.25 141.75L251 142.5Q250.25 142.5 249.75 143Q248.75 142 245.5 142Q244.75 142 243.25 142.5Q242.75 142.75 242.25 143.5Q242 143.75 242 145L241.75 153Q241.75 159 242.25 163.5Q242.75 167.25 245.5 168Q246.25 168.75 247.5 169.25ZM303.75 168.5Q305 169.25 306.25 169.25Q308.5 169.25 309.25 169Q310.5 168.75 311.5 167.75Q312.25 167.25 311.75 166L311.75 155L318.25 153L320.75 152.25Q322.25 151.75 322.25 149.25L322.25 147.75Q321.5 145 319.75 144.25L319.25 144Q318.25 143 317.75 143Q317 142.75 316 143L310.75 144.75Q310.5 144 309.25 144L309 143.75Q308.5 142.5 305.25 142.5Q302.75 142.75 301.75 143.5Q300.5 144 300.5 151.5L300.75 165.25Q300.75 166.5 301.75 167.25Q302.75 167.75 303 167.75L303.75 168.5ZM141.75 164.75Q141.75 165.25 139 165.25Q136.5 165.25 136.5 164.5Q137.25 149.5 137 148.5Q134.5 148.5 133.75 148.75Q133 149 130 149Q129.25 147.5 129.25 145.25L129.25 143.75Q133.75 142.25 142 142.75Q142.5 143.25 142.5 146.75Q142.5 157.25 141.75 164.75ZM235.5 165.5Q235.5 166 232.75 166Q230.25 166 230.25 165.25L230.75 158.75Q231 155.75 231 151.75Q231 148.75 230.75 148.25Q228 148.25 227.25 148.5Q225.25 149 224.5 148.5Q223.75 147.25 223.75 145.75L224 143.5L229.5 142.75Q233.5 142.75 235.75 143Q236.25 143.5 236.25 146.75L236.25 154.75Q236.25 158.5 236 159.5L235.5 165.5ZM205 156.5L200 157L195.5 157.5Q194.5 156.75 194.5 154.75Q194.25 152.75 195.25 152.5L199.75 152Q201.5 151.75 204 152.25Q204 150.75 204.25 150Q204.25 148.75 204 148L202.25 148Q200.75 148 200 148.25Q199.25 148.5 198.25 148.5L197.25 148.5Q196.5 147.25 196.5 145.5L196.5 144Q200.75 142.5 209 143Q209.5 143.5 209.5 146.75L209.5 152.5Q209.029 156.268 209.002 156.265Q209 156.264 209 156.25Q209 156.5 206.25 156.5L205 156.5ZM294.641 165.471Q294.577 165.5 294.5 165.5L289.5 165.75Q289.25 165.75 289.25 165.5L287.75 165.5Q285.25 165.5 285.25 164.75L285.25 158.25Q285.5 155.5 285.5 151.75Q285.5 149 285.25 148.5Q283 148.5 282.25 148.75Q281.5 149 278.5 149Q277.75 147.5 277.75 145.5L277.75 144Q283 142.5 290.75 143Q291 143.25 291 145.25L291 154.75Q291 158.25 290.75 159L291 160.25L294 160Q294.25 160.25 294.75 162.75Q295.199 165.217 294.641 165.471ZM154.5 165.5Q154 165.75 152 165.75Q151.25 165.75 150 165L149.75 151.25Q149.75 144.25 150.25 143.75L153.25 143Q155.5 143 155.75 143.75Q156 144 156 152.75L156 160.25Q156 163.75 156.25 164.75Q155.75 165.25 154.5 165.5ZM262.25 165.5Q262.25 166 259.5 166Q257 166 257 165.25L257.5 156.25Q257.75 154.25 257.75 151.5Q257.75 149.25 257.5 148.75Q254.75 148.75 254 149Q252.25 149.25 251.5 149Q250.75 147.75 250.75 146.25L251 144L256.25 143.25Q260.25 143.25 262.5 143.5Q263 144 263 147.25L263 153.75Q263 157.75 262.75 159.5L262.25 165.5ZM199.5 166.75Q197.25 167 194.25 167Q191.75 167 191.5 166.75Q189.75 166.5 189.25 163.75Q189 162 188.5 155L188.5 144Q189 143.5 190.75 143.5Q194 143.5 194.25 144.25L194.25 156.5Q194.25 160.5 195 161.75Q195 162 196 162L198.25 162Q200.5 162 202.25 161.75Q206.75 161.5 208 161Q209 162 209 164Q209 165.25 208.75 166L199.5 166.75ZM255.25 166Q251.75 166.75 248.75 166.75Q246.25 166.75 246 166.5Q244.25 166.25 243.75 163.25Q243.25 159.75 243.25 153L243.5 144Q244 143.5 245.5 143.5Q248.75 143.5 249 144.5L249 148.75Q248.75 149.75 248.75 151.5L248.75 154Q248.75 159.75 249.5 161Q249.5 161.25 250.5 161.25Q252.25 161.25 252.5 161Q254 161 254.5 160.75Q255.5 161.75 255.5 164Q255.5 165.25 255.25 166ZM279.25 166.25Q276.75 166.75 275.5 166.75Q273 166.75 272.75 166.5Q271 166.25 270.5 163.25Q270 159.75 270 156.25L269.75 144Q270.25 143.5 272.25 143.5Q275.5 143.5 275.75 144.5L275.75 149Q275.5 150 275.5 152.25L275.5 156.5Q275.5 159.75 276.25 161Q276.25 161.25 277.25 161.25L280.25 160.75L282.75 160Q283.75 161 283.75 163.25Q283.75 164.75 283.5 165.5L279.25 166.25ZM338.75 165.5Q334.5 166.75 332 166.75Q329 166.75 327 165.5Q325.75 163.5 325.75 155Q325.75 147.75 326.25 144.25Q327.75 143.5 328.75 143.5Q329.75 143.5 332 144.25Q331.75 144.5 331.75 146.75Q331.75 150.25 331.5 152.75Q331 160 332 161.25L338.25 160.5Q339 162.75 339 164.25Q339 165.25 338.75 165.5ZM306.75 166.25Q306.25 166.5 304.25 166.5Q303.25 166.5 302.25 165.75L302 152.25Q302 145.25 302.5 144.75L305.5 144Q307.75 144 308 144.75L308 145.5Q308 146 308.25 146.25L308.25 147L317 144.25Q318.25 144.5 318.75 146.75Q319 149.25 318.25 149.5L308.25 152.5L308.25 161Q308.25 164.5 308.5 165.5Q308 166 306.75 166.25ZM197.75 150L198 150.5L197.75 150.75L197.75 150ZM227.75 151.5L229.5 151.25L229.25 158.75L229.25 160.25L229 160Q228.25 159 227 159.5L226.25 159.5Q226 159.75 225.5 159.75L225.5 150.75Q226.25 151.5 227.75 151.5ZM280 159.25L279.25 159.5L279 159.5L279 151.25L279.25 151Q279.75 151.75 281 151.75Q283.25 151.75 284 151.5L283.75 158.25L283.75 159Q283 158.25 282 158.75L280 159.25ZM254.5 152L256.25 151.75L256 156.25L255.75 160L255 159.25Q254.5 159 253.875 159.25Q253.25 159.5 253 159.5L252.5 159.5L252.25 155.25L252.25 151.25Q253 152 254.5 152ZM338.75 159L338 159L335 159.5L335 154L335.25 151.5Q335.75 151.75 337 151.75L338.75 151.75L338.75 159Z" fill="#FFFFFF"/>
  <g filter="url(#filter_1_3_dd)">
    <path d="M149.769 334.517C186.372 320.954 271.934 305.765 321.349 353.504C383.117 413.178 180.653 436.572 149.769 440.302C118.884 444.032 255.004 504.384 165.783 496.246C126.434 464.511 97.5322 480.989 88 493.195" stroke="url(#paint_linear_1_3_0)"/>
  </g>
  <defs>
    <filter id="filter_1_3_dd" x="83.605934" y="320.499329" width="253.894257" height="184.997192" filterUnits="userSpaceOnUse" color-interpolation-filters="sRGB">
      <feFlood flood-opacity="0" result="BackgroundImageFix"/>
      <feColorMatrix in="SourceAlpha" type="matrix" values="0 0 0 0 0 0 0 0 0 0 0 0 0 0 0 0 0 0 127 0"/>
      <feOffset dx="0" dy="4"/>
      <feGaussianBlur stdDeviation="1.33333"/>
      <feColorMatrix type="matrix" values="0 0 0 0 0 0 0 0 0 0 0 0 0 0 0 0 0 0 0.25 0"/>
      <feBlend mode="normal" in2="BackgroundImageFix" result="effect_dropShadow_1"/>
      <feBlend mode="normal" in="SourceGraphic" in2="effect_dropShadow_1" result="shape"/>
    </filter>
    <linearGradient id="paint_linear_1_13_0" x1="210.000000" y1="0.000000" x2="210.000000" y2="800.000061" gradientUnits="userSpaceOnUse">
      <stop offset="0.061069" stop-color="#0B5DFF"/>
      <stop offset="1.000000" stop-color="#C4C4C4" stop-opacity="0.000000"/>
    </linearGradient>
    <linearGradient id="paint_linear_1_3_0" x1="210.500626" y1="321.000183" x2="88.000015" y2="497.000031" gradientUnits="userSpaceOnUse">
      <stop stop-color="#5687E8"/>
      <stop offset="1.000000" stop-color="#E5E5E5"/>
    </linearGradient>
  </defs>
</svg>
