<svg width="420.000000" height="800.000061" viewBox="0 0 420 800" fill="none" xmlns="http://www.w3.org/2000/svg" xmlns:xlink="http://www.w3.org/1999/xlink">
  <desc>
    Created with Pixso.
  </desc>
  <rect width="420.000000" height="800.000061" fill="#FFFFFF"/>
  <rect width="420.000000" height="800.000061" fill="url(#paint_linear_1_13_0)"/>
  <path d="M214.271 288.129C214.271 292.223 212.958 294.207 210.849 294.207C208.72 294.207 207.408 292.223 207.408 288.129C207.408 284.078 208.72 282.129 210.849 282.129C212.958 282.129 214.271 284.078 214.271 288.129ZM226.831 288.129C226.831 292.223 225.518 294.207 223.409 294.207C221.28 294.207 219.968 292.223 219.968 288.129C219.968 284.078 221.28 282.129 223.409 282.129C225.518 282.129 226.831 284.078 226.831 288.129ZM201.488 294L195.473 294L195.473 293.184L198.113 293.184L198.113 283.695L196.078 283.695L196.078 283.07C197.023 282.91 197.742 282.656 198.305 282.336L199.055 282.336L199.055 293.184L201.488 293.184L201.488 294ZM208.337 288.129C208.337 291.664 209.33 293.426 210.849 293.426C212.353 293.426 213.345 291.664 213.345 288.129C213.345 284.656 212.353 282.91 210.849 282.91C209.33 282.91 208.337 284.656 208.337 288.129ZM220.897 288.129C220.897 291.664 221.89 293.426 223.409 293.426C224.913 293.426 225.905 291.664 225.905 288.129C225.905 284.656 224.913 282.91 223.409 282.91C221.89 282.91 220.897 284.656 220.897 288.129ZM205.376 293.344C205.376 293.871 204.994 294.207 204.56 294.207C204.126 294.207 203.744 293.871 203.744 293.344C203.744 292.801 204.126 292.465 204.56 292.465C204.994 292.465 205.376 292.801 205.376 293.344ZM217.936 293.344C217.936 293.871 217.554 294.207 217.12 294.207C216.686 294.207 216.304 293.871 216.304 293.344C216.304 292.801 216.686 292.465 217.12 292.465C217.554 292.465 217.936 292.801 217.936 293.344Z" fill="#FFFFFF"/>
  <path d="M208.231 645L207.87 645L207.87 637.061L208.231 637.061L208.231 640.591C208.79 640.02 209.339 639.6 210.069 639.6C211.151 639.6 211.659 640.249 211.659 641.609L211.659 645L211.3 645L211.3 641.66C211.3 640.5 210.929 639.929 210.03 639.929C209.381 639.929 208.9 640.281 208.231 640.969L208.231 645ZM178.75 644.099C178.2 644.741 177.561 645.129 176.621 645.129C174.831 645.129 173.62 643.64 173.62 641.35C173.62 639.06 174.841 637.61 176.679 637.61C177.519 637.61 178.161 638.03 178.53 638.469L178.3 638.721C177.91 638.269 177.36 637.959 176.679 637.959C175.019 637.959 174.011 639.27 174.011 641.35C174.011 643.43 175.019 644.78 176.64 644.78C177.399 644.78 177.971 644.47 178.52 643.86L178.75 644.099ZM229.469 645L225.219 645L225.219 644.771C227.799 642.561 228.73 641.021 228.73 639.651C228.73 638.711 228.251 637.939 227.14 637.939C226.491 637.939 225.89 638.32 225.451 638.87L225.199 638.64C225.71 638.069 226.32 637.61 227.17 637.61C228.4 637.61 229.111 638.42 229.111 639.651C229.111 641.24 227.919 642.781 225.82 644.719C226.22 644.69 226.62 644.67 227.011 644.67L229.469 644.67L229.469 645ZM234.631 641.35C234.631 643.911 233.849 645.129 232.58 645.129C231.291 645.129 230.519 643.911 230.519 641.35C230.519 638.821 231.291 637.61 232.58 637.61C233.849 637.61 234.631 638.821 234.631 641.35ZM239.889 645L235.639 645L235.639 644.771C238.219 642.561 239.15 641.021 239.15 639.651C239.15 638.711 238.671 637.939 237.56 637.939C236.911 637.939 236.31 638.32 235.871 638.87L235.619 638.64C236.13 638.069 236.74 637.61 237.59 637.61C238.82 637.61 239.531 638.42 239.531 639.651C239.531 641.24 238.339 642.781 236.24 644.719C236.64 644.69 237.04 644.67 237.431 644.67L239.889 644.67L239.889 645ZM245.099 645L240.849 645L240.849 644.771C243.429 642.561 244.36 641.021 244.36 639.651C244.36 638.711 243.881 637.939 242.77 637.939C242.121 637.939 241.52 638.32 241.081 638.87L240.829 638.64C241.34 638.069 241.95 637.61 242.8 637.61C244.03 637.61 244.741 638.42 244.741 639.651C244.741 641.24 243.549 642.781 241.449 644.719C241.85 644.69 242.25 644.67 242.641 644.67L245.099 644.67L245.099 645ZM200.701 638.02C200.701 638.25 200.51 638.401 200.31 638.401C200.1 638.401 199.929 638.25 199.929 638.02C199.929 637.771 200.1 637.629 200.31 637.629C200.51 637.629 200.701 637.771 200.701 638.02ZM230.89 641.35C230.89 643.579 231.55 644.8 232.58 644.8C233.6 644.8 234.259 643.579 234.259 641.35C234.259 639.15 233.6 637.93 232.58 637.93C231.55 637.93 230.89 639.15 230.89 641.35ZM222.179 645.979C221.55 646.37 220.871 646.57 220.119 646.57C218.01 646.57 216.479 645.161 216.479 642.781C216.479 639.929 218.52 638.081 220.79 638.081C222.88 638.081 224.189 639.451 224.189 641.521C224.189 643.369 223.1 644.36 222.221 644.36C221.64 644.36 221.22 644.099 221.181 643.53L221.159 643.53C220.761 643.94 220.319 644.299 219.809 644.299C219.15 644.299 218.571 643.811 218.571 642.82C218.571 641.78 219.311 640.371 220.61 640.371C221 640.371 221.31 640.549 221.53 640.901L221.55 640.901L221.64 640.459L221.94 640.459L221.559 642.49C221.301 643.54 221.54 644.041 222.241 644.041C222.951 644.041 223.84 643.14 223.84 641.55C223.84 639.609 222.641 638.401 220.761 638.401C218.74 638.401 216.821 640.12 216.821 642.759C216.821 644.89 218.151 646.24 220.141 646.24C220.89 646.24 221.491 646.021 222.011 645.701L222.179 645.979ZM215.8 644.929C215.49 645.039 215.16 645.129 214.98 645.129C214.001 645.129 213.739 644.519 213.739 643.601L213.739 640.061L212.9 640.061L212.9 639.78L213.739 639.729L213.781 638.191L214.091 638.191L214.091 639.729L215.651 639.729L215.651 640.061L214.091 640.061L214.091 643.65C214.091 644.331 214.24 644.8 215.009 644.8C215.209 644.8 215.49 644.719 215.68 644.629L215.8 644.929ZM184.461 642.38C184.461 644.121 183.379 645.129 182.12 645.129C180.86 645.129 179.781 644.121 179.781 642.38C179.781 640.61 180.86 639.6 182.12 639.6C183.379 639.6 184.461 640.61 184.461 642.38ZM186.461 647.429L186.1 647.429L186.1 639.729L186.4 639.729L186.461 640.41L186.481 640.41C187.001 640 187.631 639.6 188.29 639.6C189.72 639.6 190.409 640.659 190.409 642.29C190.409 644.08 189.33 645.129 188.07 645.129C187.57 645.129 187.02 644.89 186.461 644.47L186.461 647.429ZM197.091 645L196.73 645L196.73 639.729L197.03 639.729L197.091 640.72L197.111 640.72C197.46 640.081 197.97 639.6 198.6 639.6C198.781 639.6 198.929 639.619 199.11 639.709L199.02 640.039C198.849 639.971 198.761 639.951 198.551 639.951C198.08 639.951 197.499 640.32 197.091 641.36L197.091 645ZM206.701 645.801C206.701 646.689 205.751 647.571 204.269 647.571C202.931 647.571 202.111 646.98 202.111 646.101C202.111 645.64 202.421 645.149 202.909 644.8L202.909 644.761C202.641 644.6 202.44 644.319 202.44 643.921C202.44 643.44 202.79 643.11 203.019 642.949L203.019 642.91C202.689 642.62 202.35 642.1 202.35 641.46C202.35 640.391 203.151 639.6 204.159 639.6C204.459 639.6 204.701 639.67 204.85 639.729L206.61 639.729L206.61 640.061L205.351 640.061C205.719 640.371 205.971 640.859 205.971 641.46C205.971 642.51 205.18 643.33 204.159 643.33C203.859 643.33 203.51 643.24 203.27 643.091C203.029 643.279 202.809 643.53 202.809 643.889C202.809 644.29 203.029 644.619 203.839 644.619L205.011 644.619C206.171 644.619 206.701 644.99 206.701 645.801ZM193.451 645.74C193.18 646.56 192.65 647.439 191.74 647.439C191.559 647.439 191.359 647.4 191.229 647.329L191.32 647C191.43 647.051 191.601 647.09 191.759 647.09C192.421 647.09 192.87 646.45 193.161 645.61L193.31 645.12L191.129 639.729L191.53 639.729L192.86 643.169C193.029 643.621 193.251 644.18 193.451 644.651L193.5 644.651C193.671 644.18 193.849 643.621 194 643.169L195.18 639.729L195.551 639.729L193.451 645.74ZM200.481 645L200.12 645L200.12 639.729L200.481 639.729L200.481 645ZM180.159 642.38C180.159 643.821 180.999 644.8 182.12 644.8C183.24 644.8 184.09 643.821 184.09 642.38C184.09 640.93 183.24 639.929 182.12 639.929C180.999 639.929 180.159 640.93 180.159 642.38ZM188.26 639.929C187.721 639.929 187.13 640.259 186.461 640.84L186.461 644.089C187.079 644.609 187.679 644.8 188.099 644.8C189.22 644.8 190.03 643.76 190.03 642.29C190.03 640.95 189.549 639.929 188.26 639.929ZM202.731 641.46C202.731 642.371 203.4 643 204.159 643C204.931 643 205.6 642.371 205.6 641.46C205.6 640.52 204.95 639.929 204.159 639.929C203.38 639.929 202.731 640.51 202.731 641.46ZM218.92 642.8C218.92 643.669 219.34 643.979 219.85 643.979C220.209 643.979 220.629 643.74 221.091 643.21L221.44 641.26C221.159 640.83 220.939 640.701 220.58 640.701C219.56 640.701 218.92 641.831 218.92 642.8ZM202.489 646.069C202.489 646.77 203.141 647.251 204.291 647.251C205.551 647.251 206.33 646.531 206.33 645.84C206.33 645.22 205.89 644.98 205.06 644.98L203.859 644.98C203.79 644.98 203.51 644.961 203.219 644.89C202.699 645.239 202.489 645.681 202.489 646.069Z" fill="#34A2DA" fill-opacity="0.900000"/>
  <path d="M164.945 325.465Q165.121 325.527 165.199 325.734L165.199 320.664L154.32 320.664L154.625 320.984L154.625 328.055L156.703 328.055L156.703 325.398L164.625 325.398Q164.77 325.398 164.945 325.465ZM233.201 320.68L233.486 321L233.486 323.273L224.4 323.273L224.654 323.594L224.654 328.07L235.584 328.07L235.584 320.68L233.201 320.68ZM244.225 320.68L244.529 321L244.529 328.07L255.15 328.07L255.15 323.273L246.623 323.273L246.623 320.68L244.225 320.68ZM163.121 324.297L156.703 324.297L156.703 321.785L163.121 321.785L163.121 324.297ZM186.4 322.457L183.65 322.457L184.142 322.855L182.529 326.887L180.56 322.457L178.048 322.457L178.591 322.855L181.103 328.07L183.361 328.07L185.025 323.992L186.927 328.07L189.169 328.07L191.49 322.457L190.048 322.457L188.353 326.809L186.4 322.457ZM257.168 331.191L259.214 331.191L265.648 322.457L263.503 322.457L261.281 325.527L258.8 322.457L255.793 322.457L256.562 322.84L260.128 327.098L257.168 331.191ZM165.84 323.258L166.145 323.574L166.145 328.055L177.407 328.055L177.407 323.258L165.84 323.258ZM202.624 328.137Q202.8 328.199 202.878 328.391L202.878 326.953L194.511 326.953L194.511 326.121L202.304 326.121Q202.449 326.121 202.624 326.176Q202.8 326.23 202.878 326.441L202.878 323.258L192.128 323.258L192.417 323.559L192.417 328.07L202.304 328.07Q202.449 328.07 202.624 328.137ZM203.52 323.258L203.825 323.574L203.825 328.07L205.903 328.07L205.903 325.688L211.794 324.602Q211.934 324.602 212.11 324.664Q212.29 324.727 212.368 324.922L212.368 323.258L205.903 324.551L205.903 323.258L203.52 323.258ZM223.505 328.137Q223.68 328.199 223.758 328.391L223.758 326.953L215.391 326.953L215.391 326.121L223.184 326.121Q223.329 326.121 223.505 326.176Q223.68 326.23 223.758 326.441L223.758 323.258L213.008 323.258L213.298 323.559L213.298 328.07L223.184 328.07Q223.329 328.07 223.505 328.137ZM200.8 325L194.511 325L194.511 324.359L200.8 324.359L200.8 325ZM221.68 325L215.391 325L215.391 324.359L221.68 324.359L221.68 325ZM168.223 326.953L168.223 324.375L175.329 324.375L175.329 326.953L168.223 326.953ZM233.486 326.969L226.736 326.969L226.736 324.375L233.486 324.375L233.486 326.969ZM246.623 326.969L246.623 324.375L253.072 324.375L253.072 326.969L246.623 326.969ZM192.968 339.785L197.16 339.785L197.16 346.055L199.242 346.055L199.242 339.785L202.968 339.785Q203.113 339.785 203.289 339.84Q203.464 339.895 203.543 340.105L203.543 338.664L193.464 338.664L192.968 338.391L192.968 339.785ZM178.745 339.785L178.745 346.055L180.824 346.055L180.824 338.664L169.96 338.664L170.249 338.984L170.249 346.055L172.327 346.055L172.327 339.785L178.745 339.785ZM191.761 342.984Q191.929 343.047 192.007 343.238L192.007 341.801L183.831 341.801L183.831 339.77L191.753 339.77Q191.898 339.77 192.081 339.832Q192.265 339.895 192.328 340.105L192.328 338.664L181.464 338.664L181.769 338.984L181.769 346.055L191.753 346.055Q191.898 346.055 192.081 346.121Q192.265 346.184 192.328 346.375L192.328 344.938L183.831 344.938L183.831 342.922L191.433 342.922Q191.593 342.922 191.761 342.984ZM238.872 338.664L239.161 338.984L239.161 346.07L249.177 346.07Q249.322 346.07 249.497 346.129Q249.673 346.184 249.751 346.375L249.751 338.664L247.368 338.664L247.658 338.984L247.658 344.938L241.255 344.938L241.255 338.664L238.872 338.664ZM214.262 346.055L216.122 340.297L217.942 346.055L220.122 346.055L221.942 340.344L223.751 346.055L225.192 346.055L222.743 338.68L220.122 338.68L220.407 339L218.712 344.023L216.934 338.68L214.262 338.68L214.552 339L212.184 346.055L214.262 346.055ZM236.168 346.055L238.231 346.055L234.551 338.68L229.114 338.68L229.414 339L225.832 346.055L227.895 346.055L229.239 343.336L234.84 343.336L236.168 346.055ZM250.392 338.68L250.681 339L250.681 346.055L252.775 346.055L252.775 338.68L250.392 338.68ZM234.282 342.215L229.785 342.215L231 339.785L233.098 339.785L234.282 342.215ZM169.318 344.344L167.224 344.344L167.224 346.055L169.318 346.055L169.318 344.344Z" fill="#F3E6FF"/>
  <path d="M151.5 211Q151.75 211.25 153 211.25L156.5 211.25Q157.75 211.25 158 211Q158.75 210.5 159 210Q159.5 208.5 159.5 206.75Q159.5 205 159 203.5Q158.75 203 158 202.5L157 202.25Q156.75 201.75 156 201.25Q155.5 201 154.5 201L151 201.25Q149.75 201.25 149.5 201.5Q148.75 202 148.5 202.5Q148 204 148 205.75Q148 207.25 148.5 208.75Q148.75 209.25 149.5 209.75L150.5 210Q150.75 210.5 151.5 211ZM85.25 243Q87.5 243 88.75 242.75Q90 242.75 90.5 241.5L93.75 227L96.75 240.25Q97.25 241.5 98.5 241.5L98.75 241.5Q99.25 242.75 100.5 242.75Q101.75 243 104 243Q106.25 243 107.25 242.5L107.75 241.25L118 207Q118.25 206 117.75 205Q116 203.25 114.75 203Q113 201.25 110.25 201.25L109.5 201.25Q108.5 201.25 108 202.5L102.5 222L98.5 204.25Q98 203 96.75 203L96.5 203Q96 201.75 94.75 201.75L90.75 201.75Q89.5 201.75 89 203L84.75 221.25L80.5 204.25Q80.25 202.75 79 202.75L78.5 202.75Q78 201.5 77 201.5Q72.75 201 70.5 203.75Q70 204.75 70.25 205.75L79.5 240Q80 241.25 80.75 241.5L81.5 241.5Q81.75 242.5 82.75 242.75L85.25 243ZM123.5 242.25Q124.75 243 126 243Q128.25 243 129 242.75Q130.25 242.5 131.25 241.5Q132 241 131.5 239.75L131.5 226.5L132.5 226.75Q134.75 226.75 135.5 226.5L135 239.5Q135 241.25 137.25 241.5Q137.75 243 141 243Q145.25 243 145.25 241Q146 233.5 146 223Q146 219.75 145.5 218.75Q145.25 218.25 144.5 217.75L143.5 217.5Q143.25 217 142.5 216.5Q142.25 216.25 141 216.25Q136 216 131.5 216.75Q131.5 207.5 131.25 205.5Q131.5 203.25 129 202.75Q128.25 201.25 125 201.25Q122.5 201.5 121.5 202.25Q120.25 202.75 120.25 215L120.5 232.5Q120.5 240.25 121.5 241L123 241.75L123.5 242.25ZM220.75 244.5Q221.5 244.75 224 244.75Q228 244.75 230.75 243.75L231.75 243.25Q232.75 243.75 234.75 243.75Q239 243.75 239 241.75L239.5 236Q239.75 234.75 239.75 231L239.75 223L239.5 219.5Q239.5 218 238.25 218L237.5 217.75Q237 216.75 236.25 216.75Q234 216.25 229.5 216.25L225.75 216.75L225.75 205.75Q225.75 204.5 225.5 204Q225 203.25 223.5 202.75Q222.5 201.25 218.75 201.25Q218 201.25 216.5 201.75Q216 202 215.5 202.75Q215.25 203 215.25 204.25L215 230.75Q215 235.25 215.5 238.75Q216 242.5 218.75 243.25Q219.5 244 220.75 244.5ZM328.75 243.25Q331.25 244.5 334 244.5Q336.25 244.5 340.75 243.25Q341.75 243.25 342 242.5Q343.5 243 344.25 243Q346.75 243 347.25 242.75Q348.25 242.5 349.25 241.5Q350 241 349.5 239.75L349.5 212.75Q349.5 207 349.25 205.5Q349.5 203.25 347 202.75Q346.25 201.25 343.5 201.25Q342.75 201.25 342.25 201.5Q340.25 201.75 339.5 202.5Q338.5 203 338.5 217L338.25 217L334.5 217.25Q333.25 217.25 332.75 217.75L332.5 218.25Q330.25 217 328.75 217Q327.5 217 326 217.75Q324.75 218.25 324.75 219.25Q324.25 224.25 324.25 230Q324.25 238.5 325.5 240.75Q325.75 241.5 326.75 242L327.75 242.5L328.75 243.25ZM170.065 243.327Q170.372 243.378 170.75 243L174 243.75Q179.75 244 183.5 243.25Q184.75 242.75 184.75 241.75Q185.25 237.75 184.5 236.25Q183.75 235.25 182.75 235.25L182.5 235.25L182.5 235Q181.75 234 180.75 234L177 234L177 233.5L177.25 224.75L182.25 224.5Q183.75 224.5 183.75 223Q184.25 219.5 183.25 217.5Q182.5 216.5 181.5 216.5L181.25 216.5L181.25 216.25Q180.5 215.25 179.5 215.25L177.25 215.25L177.75 205.5Q177.75 203.75 175.5 203.5Q175 202 171.75 202Q167.5 202 167.5 204L166.75 215.5L164 215.75Q162.75 215.75 162.25 217L162 218.5Q161.75 219 161.75 220Q161.75 220.5 162.25 222.5Q162.5 223.75 164 223.75Q164.75 225 166 225L166.75 225Q166.25 232.25 166.75 236.75Q166.75 242 168.25 242L168.75 241.75L169.25 242Q169.561 243.243 170.065 243.327ZM156 205.5Q156 208 155.5 208.5L150 208.5Q149.5 208 149.5 205.75Q149.5 203.25 150 202.75L155.5 202.5Q156 203 156 205.5ZM87 240L83.25 240.25L81 240L71.5 205Q72.75 203 76 203L77 203L84 231L90.5 203.25L95 203.25L101.5 231.25L109.5 202.75Q112.5 202.25 114.75 205L104.25 240L102 240.25L98.25 240L92.75 215.25L87 240ZM126.5 240Q126 240.25 124 240.25Q123 240.25 122 239.5L121.75 216Q121.75 204 122.25 203.5L125.25 202.75Q127.5 202.75 127.75 203.5Q128 203.75 128 220L128 232.75Q128 238.25 128.25 239.25Q127.75 239.75 126.5 240ZM228.5 241Q225.75 242 222 242Q219.5 242 219.25 241.75Q217.5 241.5 217 238.5Q216.5 235 216.5 230.75L216.75 203.25Q217.25 202.75 218.75 202.75Q222 202.75 222.25 203.75L222.25 215.75Q222 219.5 222 225L222 231.75Q222 235 222.75 236.25Q222.75 236.5 223.75 236.5Q225.5 236.5 225.75 236.25L227.75 235.75Q228.75 236.75 228.75 239Q228.75 240.25 228.5 241ZM344.75 240Q344.25 240.25 342.25 240.25Q341.5 240.25 340.25 239.5L340.25 231Q340.25 226 340 223.75L339 223.75Q337.75 224 336 224L334.25 224Q333.25 223.75 333.25 221.25Q333.25 219.5 334 218.75L338.25 218.5L340 218.5Q340 204 340.5 203.5L343.25 202.75Q345.5 202.75 345.75 203.5Q346 203.75 346 220L346 232.75Q346 238.25 346.25 239.25L344.75 240ZM175.5 241Q171.25 241 168.75 240.75Q168.25 240.25 168.25 236.75L168 230.25L168.25 222L163.75 222.25Q163.25 220.75 163.25 220Q163.25 219.25 163.5 218.75L163.75 217.25L168.25 217L169 204Q169 203.5 171.75 203.5Q174.25 203.5 174.25 204.25L173.75 217L179.75 216.75Q180.5 218.25 180.5 219.75L180.25 221.75L173.75 222L173.5 231.25L173.75 235.25Q174.75 235.5 176.25 235.5L181 235.5Q181.5 236.5 181.5 238L181.25 240.5Q179.75 241 175.5 241ZM151.5 242.75Q152.75 243.5 154 243.5Q156.25 243.5 157 243.25Q158.25 243 159.25 242Q160 241.5 159.5 240.25L159.5 229Q159.5 222 159.25 220.25Q159.25 218.5 157 218Q156.25 216.5 153 216.5Q150.5 216.75 149.5 217.5Q148.25 218 148.25 226.25Q148.25 231.75 148.5 235.25Q148.5 240.75 149.5 241.5Q150.5 242 151 242L151.5 242.75ZM193 244.5Q193.75 244.75 196.25 244.75Q199.25 244.75 201.75 244.5L210.75 243.75Q211.75 243.75 212.25 242.5Q212.5 241.75 212.5 240.25Q212.5 237.75 210.75 236.25Q210.5 235.75 209.5 235.75L208.75 235Q208.25 234.25 207.625 234.5Q207 234.75 206.75 234.75Q206.798 234.726 206.795 234.711Q206.77 234.572 202.25 235.25Q200.5 235.5 198.25 235.5L197.75 235.5L197.75 235.25L198.25 235.25L202.25 234.75L204.5 234.5Q206.5 234.5 207.25 234.25L209.375 234.25Q210.25 234.25 211.25 234Q212.25 233.75 212.5 232.75Q212.75 232.25 212.75 230.75L213 228.75L213 223L212.75 219.5Q212.75 218 211.25 218L210.75 218Q210.25 216.75 209.25 216.75Q207.5 216.5 204.25 216.5Q199.5 216.5 195.75 217.75L195.25 218Q194.25 217 190.75 217Q189.75 217 188.25 217.5Q187.75 217.75 187.25 218.5Q187 218.75 187 220L187 230Q187.25 237 187.75 239Q188.25 242.5 191 243.25Q192 244.25 193 244.5ZM274.25 244.25Q275 244.5 277.5 244.5Q279 244.5 281.5 244L285.5 243.25Q286.25 243.25 286.75 242.75Q288.25 243.25 289.75 243.25L290.5 243.25Q291.25 243.25 291.25 242.5L291.25 242.25L291.5 242.25L291.5 242.75Q291.5 243.5 293 243.5L296.5 243.25Q298.5 243.25 298.5 240.75L298.25 238.75L297.5 236Q297.25 235.25 296.5 235L295.5 234.75Q295.25 234 294.5 233.75L294.25 233.75L294.5 231L294.5 223.25Q294.75 221 294.375 219.375Q294 217.75 293 217.75Q292.5 217.75 292.25 218Q291.958 216.832 291.325 216.602Q290.874 216.438 290.25 216.75Q288.75 216.5 286.25 216.5Q281.25 216.5 277.5 217.5L276.5 218Q275.5 217 272.25 217Q271 217 269.5 217.5Q269 217.75 268.5 218.5Q268.25 219 268.25 220L268.5 231.25Q268.5 235 269 238.5Q269.5 242.25 272.25 243Q273.25 244 274.25 244.25ZM247.5 244.25Q248.25 244.5 250.75 244.5Q254.25 244.5 257.25 243.75Q258 243.75 258.5 243.25Q259.5 243.75 261.5 243.75Q265.75 243.75 265.75 241.75L266.25 235.75Q266.5 234 266.5 230L266.5 223.5L266.25 220Q266.25 218.5 265 218.5L264.25 218.25Q263.75 217.25 263 217.25Q260.75 216.75 256.25 216.75L251 217.5Q250.25 217.5 249.75 218Q248.75 217 245.5 217Q244.75 217 243.25 217.5Q242.75 217.75 242.25 218.5Q242 218.75 242 220L241.75 228Q241.75 234 242.25 238.5Q242.75 242.25 245.5 243Q246.25 243.75 247.5 244.25ZM303.75 243.5Q305 244.25 306.25 244.25Q308.5 244.25 309.25 244Q310.5 243.75 311.5 242.75Q312.25 242.25 311.75 241L311.75 230L318.25 228L320.75 227.25Q322.25 226.75 322.25 224.25L322.25 222.75Q321.5 220 319.75 219.25L319.25 219Q318.25 218 317.75 218Q317 217.75 316 218L310.75 219.75Q310.5 219 309.25 219L309 218.75Q308.5 217.5 305.25 217.5Q302.75 217.75 301.75 218.5Q300.5 219 300.5 226.5L300.75 240.25Q300.75 241.5 301.75 242.25Q302.75 242.75 303 242.75L303.75 243.5ZM141.75 239.75Q141.75 240.25 139 240.25Q136.5 240.25 136.5 239.5Q137.25 224.5 137 223.5Q134.5 223.5 133.75 223.75Q133 224 130 224Q129.25 222.5 129.25 220.25L129.25 218.75Q133.75 217.25 142 217.75Q142.5 218.25 142.5 221.75Q142.5 232.25 141.75 239.75ZM235.5 240.5Q235.5 241 232.75 241Q230.25 241 230.25 240.25L230.75 233.75Q231 230.75 231 226.75Q231 223.75 230.75 223.25Q228 223.25 227.25 223.5Q225.25 224 224.5 223.5Q223.75 222.25 223.75 220.75L224 218.5L229.5 217.75Q233.5 217.75 235.75 218Q236.25 218.5 236.25 221.75L236.25 229.75Q236.25 233.5 236 234.5L235.5 240.5ZM205 231.5L200 232L195.5 232.5Q194.5 231.75 194.5 229.75Q194.25 227.75 195.25 227.5L199.75 227Q201.5 226.75 204 227.25Q204 225.75 204.25 225Q204.25 223.75 204 223L202.25 223Q200.75 223 200 223.25Q199.25 223.5 198.25 223.5L197.25 223.5Q196.5 222.25 196.5 220.5L196.5 219Q200.75 217.5 209 218Q209.5 218.5 209.5 221.75L209.5 227.5Q209.029 231.268 209.002 231.265Q209 231.264 209 231.25Q209 231.5 206.25 231.5L205 231.5ZM294.641 240.471Q294.577 240.5 294.5 240.5L289.5 240.75Q289.25 240.75 289.25 240.5L287.75 240.5Q285.25 240.5 285.25 239.75L285.25 233.25Q285.5 230.5 285.5 226.75Q285.5 224 285.25 223.5Q283 223.5 282.25 223.75Q281.5 224 278.5 224Q277.75 222.5 277.75 220.5L277.75 219Q283 217.5 290.75 218Q291 218.25 291 220.25L291 229.75Q291 233.25 290.75 234L291 235.25L294 235Q294.25 235.25 294.75 237.75Q295.199 240.217 294.641 240.471ZM154.5 240.5Q154 240.75 152 240.75Q151.25 240.75 150 240L149.75 226.25Q149.75 219.25 150.25 218.75L153.25 218Q155.5 218 155.75 218.75Q156 219 156 227.75L156 235.25Q156 238.75 156.25 239.75Q155.75 240.25 154.5 240.5ZM262.25 240.5Q262.25 241 259.5 241Q257 241 257 240.25L257.5 231.25Q257.75 229.25 257.75 226.5Q257.75 224.25 257.5 223.75Q254.75 223.75 254 224Q252.25 224.25 251.5 224Q250.75 222.75 250.75 221.25L251 219L256.25 218.25Q260.25 218.25 262.5 218.5Q263 219 263 222.25L263 228.75Q263 232.75 262.75 234.5L262.25 240.5ZM199.5 241.75Q197.25 242 194.25 242Q191.75 242 191.5 241.75Q189.75 241.5 189.25 238.75Q189 237 188.5 230L188.5 219Q189 218.5 190.75 218.5Q194 218.5 194.25 219.25L194.25 231.5Q194.25 235.5 195 236.75Q195 237 196 237L198.25 237Q200.5 237 202.25 236.75Q206.75 236.5 208 236Q209 237 209 239Q209 240.25 208.75 241L199.5 241.75ZM255.25 241Q251.75 241.75 248.75 241.75Q246.25 241.75 246 241.5Q244.25 241.25 243.75 238.25Q243.25 234.75 243.25 228L243.5 219Q244 218.5 245.5 218.5Q248.75 218.5 249 219.5L249 223.75Q248.75 224.75 248.75 226.5L248.75 229Q248.75 234.75 249.5 236Q249.5 236.25 250.5 236.25Q252.25 236.25 252.5 236Q254 236 254.5 235.75Q255.5 236.75 255.5 239Q255.5 240.25 255.25 241ZM279.25 241.25Q276.75 241.75 275.5 241.75Q273 241.75 272.75 241.5Q271 241.25 270.5 238.25Q270 234.75 270 231.25L269.75 219Q270.25 218.5 272.25 218.5Q275.5 218.5 275.75 219.5L275.75 224Q275.5 225 275.5 227.25L275.5 231.5Q275.5 234.75 276.25 236Q276.25 236.25 277.25 236.25L280.25 235.75L282.75 235Q283.75 236 283.75 238.25Q283.75 239.75 283.5 240.5L279.25 241.25ZM338.75 240.5Q334.5 241.75 332 241.75Q329 241.75 327 240.5Q325.75 238.5 325.75 230Q325.75 222.75 326.25 219.25Q327.75 218.5 328.75 218.5Q329.75 218.5 332 219.25Q331.75 219.5 331.75 221.75Q331.75 225.25 331.5 227.75Q331 235 332 236.25L338.25 235.5Q339 237.75 339 239.25Q339 240.25 338.75 240.5ZM306.75 241.25Q306.25 241.5 304.25 241.5Q303.25 241.5 302.25 240.75L302 227.25Q302 220.25 302.5 219.75L305.5 219Q307.75 219 308 219.75L308 220.5Q308 221 308.25 221.25L308.25 222L317 219.25Q318.25 219.5 318.75 221.75Q319 224.25 318.25 224.5L308.25 227.5L308.25 236Q308.25 239.5 308.5 240.5Q308 241 306.75 241.25ZM197.75 225L198 225.5L197.75 225.75L197.75 225ZM227.75 226.5L229.5 226.25L229.25 233.75L229.25 235.25L229 235Q228.25 234 227 234.5L226.25 234.5Q226 234.75 225.5 234.75L225.5 225.75Q226.25 226.5 227.75 226.5ZM280 234.25L279.25 234.5L279 234.5L279 226.25L279.25 226Q279.75 226.75 281 226.75Q283.25 226.75 284 226.5L283.75 233.25L283.75 234Q283 233.25 282 233.75L280 234.25ZM254.5 227L256.25 226.75L256 231.25L255.75 235L255 234.25Q254.5 234 253.875 234.25Q253.25 234.5 253 234.5L252.5 234.5L252.25 230.25L252.25 226.25Q253 227 254.5 227ZM338.75 234L338 234L335 234.5L335 229L335.25 226.5Q335.75 226.75 337 226.75L338.75 226.75L338.75 234Z" fill="#FFFFFF"/>
  <defs>
    <linearGradient id="paint_linear_1_13_0" x1="210.000000" y1="0.000000" x2="210.000000" y2="800.000061" gradientUnits="userSpaceOnUse">
      <stop offset="0.061069" stop-color="#34A2DA"/>
      <stop offset="1.000000" stop-color="#C4C4C4" stop-opacity="0.000000"/>
    </linearGradient>
  </defs>
</svg>
