<svg width="32" height="32" xmlns="http://www.w3.org/2000/svg">

 <g>
  <title>Layer 1</title>
  <path stroke="#1785C6" d="m4.50871,20.5c0,-0.04865 -0.01959,-0.04936 0,-0.19459c0.03329,-0.24685 0.15699,-0.54658 0.39752,-0.97297c0.17008,-0.3015 0.38906,-0.59543 0.72879,-0.92432c0.73499,-0.71156 0.86971,-1.10358 1.19257,-1.36216c0.28669,-0.22961 0.70397,-0.50661 0.99381,-0.68108c0.18474,-0.11121 0.43803,-0.33552 0.99381,-0.48649c0.2562,-0.06959 0.58599,-0.17255 0.99381,-0.24324c0.45595,-0.07903 0.99381,-0.14595 1.39134,-0.14595c0.46378,0 0.8716,0.00279 1.45759,0.0973c0.40927,0.066 0.80545,0.12238 1.25883,0.24324c0.61335,0.16351 0.92009,0.26157 1.32508,0.34054c0.32651,0.06367 0.99381,0.19459 1.32508,0.24324c0.33127,0.04865 0.59629,0.04865 1.12632,0.04865c0.33127,0 0.52784,-0.0109 0.92756,-0.04865c0.72582,-0.06854 1.18511,-0.16427 1.5901,-0.24324c0.32651,-0.06367 0.76657,-0.23691 1.25883,-0.38919c0.4445,-0.1375 0.80893,-0.22573 1.39134,-0.48649c0.40792,-0.18263 0.74355,-0.37576 0.99381,-0.53514c0.35392,-0.22539 0.79505,-0.48649 1.06007,-0.68108c0.33127,-0.24324 0.5985,-0.48533 0.92756,-0.82703c0.46693,-0.48486 0.75792,-0.75095 1.12632,-1.07027c0.24226,-0.20998 0.39752,-0.38919 0.59629,-0.48649l0.06625,-0.19459" id="svg_1" fill="none"/>
 </g>
</svg>